{
    "accessors": [
        {
            "bufferView": 0,
            "componentType": 5126,
            "count": 4,
            "max": [
                0.1602286547422409,
                0.0,
                0.16656050086021423
            ],
            "min": [
                0.113937146961689,
                -0.00228599994443357,
                0.08638127148151398
            ],
            "name": "mesh324_coord_accessor",
            "type": "VEC3"
        },
        {
            "bufferView": 1,
            "componentType": 5126,
            "count": 4,
            "max": [
                0.8660253882408142,
                -0.0,
                0.5
            ],
            "min": [
                0.8660253882408142,
                -0.0,
                0.5
            ],
            "name": "mesh324_norm_accessor",
            "type": "VEC3"
        },
        {
            "bufferView": 2,
            "componentType": 5125,
            "count": 6,
            "max": [
                3
            ],
            "min": [
                0
            ],
            "name": "mesh324_idx_accessor",
            "type": "SCALAR"
        },
        {
            "bufferView": 3,
            "componentType": 5126,
            "count": 12,
            "max": [
                0.16351249814033508,
                0.0,
                0.08638127148151398
            ],
            "min": [
                0.1602286547422409,
                -0.00228599994443357,
                0.07412576675415039
            ],
            "name": "mesh325_coord_accessor",
            "type": "VEC3"
        },
        {
            "bufferView": 4,
            "componentType": 5126,
            "count": 12,
            "max": [
                1.0,
                -0.0,
                0.5
            ],
            "min": [
                0.8660253882408142,
                -0.0,
                0.0
            ],
            "name": "mesh325_norm_accessor",
            "type": "VEC3"
        },
        {
            "bufferView": 5,
            "componentType": 5125,
            "count": 30,
            "max": [
                11
            ],
            "min": [
                0
            ],
            "name": "mesh325_idx_accessor",
            "type": "SCALAR"
        },
        {
            "bufferView": 6,
            "componentType": 5126,
            "count": 4,
            "max": [
                0.16351249814033508,
                0.0,
                0.07412576675415039
            ],
            "min": [
                0.16351249814033508,
                -0.00228599994443357,
                -0.20859749615192413
            ],
            "name": "mesh326_coord_accessor",
            "type": "VEC3"
        },
        {
            "bufferView": 7,
            "componentType": 5126,
            "count": 4,
            "max": [
                1.0,
                0.0,
                0.0
            ],
            "min": [
                1.0,
                0.0,
                0.0
            ],
            "name": "mesh326_norm_accessor",
            "type": "VEC3"
        },
        {
            "bufferView": 8,
            "componentType": 5125,
            "count": 6,
            "max": [
                3
            ],
            "min": [
                0
            ],
            "name": "mesh326_idx_accessor",
            "type": "SCALAR"
        },
        {
            "bufferView": 9,
            "componentType": 5126,
            "count": 18,
            "max": [
                0.16351249814033508,
                0.0,
                -0.20859749615192413
            ],
            "min": [
                0.15633338689804077,
                -0.00228599994443357,
                -0.225929394364357
            ],
            "name": "mesh327_coord_accessor",
            "type": "VEC3"
        },
        {
            "bufferView": 10,
            "componentType": 5126,
            "count": 18,
            "max": [
                1.0,
                0.0,
                0.0
            ],
            "min": [
                0.7071067690849304,
                0.0,
                -0.7071067690849304
            ],
            "name": "mesh327_norm_accessor",
            "type": "VEC3"
        },
        {
            "bufferView": 11,
            "componentType": 5125,
            "count": 48,
            "max": [
                17
            ],
            "min": [
                0
            ],
            "name": "mesh327_idx_accessor",
            "type": "SCALAR"
        },
        {
            "bufferView": 12,
            "componentType": 5126,
            "count": 4,
            "max": [
                0.15633338689804077,
                0.0,
                -0.225929394364357
            ],
            "min": [
                0.11004189401865005,
                -0.00228599994443357,
                -0.2722208797931671
            ],
            "name": "mesh328_coord_accessor",
            "type": "VEC3"
        },
        {
            "bufferView": 13,
            "componentType": 5126,
            "count": 4,
            "max": [
                0.7071067690849304,
                0.0,
                -0.7071067690849304
            ],
            "min": [
                0.7071067690849304,
                0.0,
                -0.7071067690849304
            ],
            "name": "mesh328_norm_accessor",
            "type": "VEC3"
        },
        {
            "bufferView": 14,
            "componentType": 5125,
            "count": 6,
            "max": [
                3
            ],
            "min": [
                0
            ],
            "name": "mesh328_idx_accessor",
            "type": "SCALAR"
        },
        {
            "bufferView": 15,
            "componentType": 5126,
            "count": 18,
            "max": [
                0.11004189401865005,
                0.0,
                -0.2722208797931671
            ],
            "min": [
                0.09271000325679779,
                -0.00228599994443357,
                -0.2793999910354614
            ],
            "name": "mesh329_coord_accessor",
            "type": "VEC3"
        },
        {
            "bufferView": 16,
            "componentType": 5126,
            "count": 18,
            "max": [
                0.7071067690849304,
                0.0,
                -0.7071067690849304
            ],
            "min": [
                0.0,
                0.0,
                -1.0
            ],
            "name": "mesh329_norm_accessor",
            "type": "VEC3"
        },
        {
            "bufferView": 17,
            "componentType": 5125,
            "count": 48,
            "max": [
                17
            ],
            "min": [
                0
            ],
            "name": "mesh329_idx_accessor",
            "type": "SCALAR"
        },
        {
            "bufferView": 18,
            "componentType": 5126,
            "count": 4,
            "max": [
                0.09271000325679779,
                0.0,
                -0.2793999910354614
            ],
            "min": [
                -0.09271000325679779,
                -0.00228599994443357,
                -0.2793999910354614
            ],
            "name": "mesh330_coord_accessor",
            "type": "VEC3"
        },
        {
            "bufferView": 19,
            "componentType": 5126,
            "count": 4,
            "max": [
                0.0,
                0.0,
                -1.0
            ],
            "min": [
                0.0,
                0.0,
                -1.0
            ],
            "name": "mesh330_norm_accessor",
            "type": "VEC3"
        },
        {
            "bufferView": 20,
            "componentType": 5125,
            "count": 6,
            "max": [
                3
            ],
            "min": [
                0
            ],
            "name": "mesh330_idx_accessor",
            "type": "SCALAR"
        },
        {
            "bufferView": 21,
            "componentType": 5126,
            "count": 18,
            "max": [
                -0.09271000325679779,
                0.0,
                -0.2722208797931671
            ],
            "min": [
                -0.11004189401865005,
                -0.00228599994443357,
                -0.2793999910354614
            ],
            "name": "mesh331_coord_accessor",
            "type": "VEC3"
        },
        {
            "bufferView": 22,
            "componentType": 5126,
            "count": 18,
            "max": [
                0.0,
                0.0,
                -0.7071067690849304
            ],
            "min": [
                -0.7071067690849304,
                0.0,
                -1.0
            ],
            "name": "mesh331_norm_accessor",
            "type": "VEC3"
        },
        {
            "bufferView": 23,
            "componentType": 5125,
            "count": 48,
            "max": [
                17
            ],
            "min": [
                0
            ],
            "name": "mesh331_idx_accessor",
            "type": "SCALAR"
        },
        {
            "bufferView": 24,
            "componentType": 5126,
            "count": 4,
            "max": [
                -0.11004189401865005,
                0.0,
                -0.225929394364357
            ],
            "min": [
                -0.15633338689804077,
                -0.00228599994443357,
                -0.2722208797931671
            ],
            "name": "mesh332_coord_accessor",
            "type": "VEC3"
        },
        {
            "bufferView": 25,
            "componentType": 5126,
            "count": 4,
            "max": [
                -0.7071067690849304,
                0.0,
                -0.7071067690849304
            ],
            "min": [
                -0.7071067690849304,
                0.0,
                -0.7071067690849304
            ],
            "name": "mesh332_norm_accessor",
            "type": "VEC3"
        },
        {
            "bufferView": 26,
            "componentType": 5125,
            "count": 6,
            "max": [
                3
            ],
            "min": [
                0
            ],
            "name": "mesh332_idx_accessor",
            "type": "SCALAR"
        },
        {
            "bufferView": 27,
            "componentType": 5126,
            "count": 18,
            "max": [
                -0.15633338689804077,
                0.0,
                -0.20859749615192413
            ],
            "min": [
                -0.16351249814033508,
                -0.00228599994443357,
                -0.225929394364357
            ],
            "name": "mesh333_coord_accessor",
            "type": "VEC3"
        },
        {
            "bufferView": 28,
            "componentType": 5126,
            "count": 18,
            "max": [
                -0.7071067690849304,
                0.0,
                0.0
            ],
            "min": [
                -1.0,
                0.0,
                -0.7071067690849304
            ],
            "name": "mesh333_norm_accessor",
            "type": "VEC3"
        },
        {
            "bufferView": 29,
            "componentType": 5125,
            "count": 48,
            "max": [
                17
            ],
            "min": [
                0
            ],
            "name": "mesh333_idx_accessor",
            "type": "SCALAR"
        },
        {
            "bufferView": 30,
            "componentType": 5126,
            "count": 4,
            "max": [
                -0.16351249814033508,
                0.0,
                0.07412576675415039
            ],
            "min": [
                -0.16351249814033508,
                -0.00228599994443357,
                -0.20859749615192413
            ],
            "name": "mesh334_coord_accessor",
            "type": "VEC3"
        },
        {
            "bufferView": 31,
            "componentType": 5126,
            "count": 4,
            "max": [
                -1.0,
                0.0,
                0.0
            ],
            "min": [
                -1.0,
                0.0,
                0.0
            ],
            "name": "mesh334_norm_accessor",
            "type": "VEC3"
        },
        {
            "bufferView": 32,
            "componentType": 5125,
            "count": 6,
            "max": [
                3
            ],
            "min": [
                0
            ],
            "name": "mesh334_idx_accessor",
            "type": "SCALAR"
        },
        {
            "bufferView": 33,
            "componentType": 5126,
            "count": 12,
            "max": [
                -0.1602286547422409,
                0.0,
                0.08638127148151398
            ],
            "min": [
                -0.16351249814033508,
                -0.00228599994443357,
                0.07412576675415039
            ],
            "name": "mesh335_coord_accessor",
            "type": "VEC3"
        },
        {
            "bufferView": 34,
            "componentType": 5126,
            "count": 12,
            "max": [
                -0.8660253882408142,
                0.0,
                0.5
            ],
            "min": [
                -1.0,
                0.0,
                0.0
            ],
            "name": "mesh335_norm_accessor",
            "type": "VEC3"
        },
        {
            "bufferView": 35,
            "componentType": 5125,
            "count": 30,
            "max": [
                11
            ],
            "min": [
                0
            ],
            "name": "mesh335_idx_accessor",
            "type": "SCALAR"
        },
        {
            "bufferView": 36,
            "componentType": 5126,
            "count": 4,
            "max": [
                -0.113937146961689,
                0.0,
                0.16656050086021423
            ],
            "min": [
                -0.1602286547422409,
                -0.00228599994443357,
                0.08638127148151398
            ],
            "name": "mesh336_coord_accessor",
            "type": "VEC3"
        },
        {
            "bufferView": 37,
            "componentType": 5126,
            "count": 4,
            "max": [
                -0.8660253882408142,
                0.0,
                0.5
            ],
            "min": [
                -0.8660253882408142,
                0.0,
                0.5
            ],
            "name": "mesh336_norm_accessor",
            "type": "VEC3"
        },
        {
            "bufferView": 38,
            "componentType": 5125,
            "count": 6,
            "max": [
                3
            ],
            "min": [
                0
            ],
            "name": "mesh336_idx_accessor",
            "type": "SCALAR"
        },
        {
            "bufferView": 39,
            "componentType": 5126,
            "count": 70,
            "max": [
                0.16351249814033508,
                0.0,
                0.17881600558757782
            ],
            "min": [
                -0.16351249814033508,
                0.0,
                -0.2793999910354614
            ],
            "name": "mesh337_coord_accessor",
            "type": "VEC3"
        },
        {
            "bufferView": 40,
            "componentType": 5126,
            "count": 70,
            "max": [
                0.0,
                1.0,
                0.0
            ],
            "min": [
                0.0,
                1.0,
                0.0
            ],
            "name": "mesh337_norm_accessor",
            "type": "VEC3"
        },
        {
            "bufferView": 41,
            "componentType": 5125,
            "count": 204,
            "max": [
                69
            ],
            "min": [
                0
            ],
            "name": "mesh337_idx_accessor",
            "type": "SCALAR"
        },
        {
            "bufferView": 42,
            "componentType": 5126,
            "count": 70,
            "max": [
                0.16351249814033508,
                -0.00228599994443357,
                0.17881600558757782
            ],
            "min": [
                -0.16351249814033508,
                -0.00228599994443357,
                -0.2793999910354614
            ],
            "name": "mesh338_coord_accessor",
            "type": "VEC3"
        },
        {
            "bufferView": 43,
            "componentType": 5126,
            "count": 70,
            "max": [
                -0.0,
                -1.0,
                -0.0
            ],
            "min": [
                -0.0,
                -1.0,
                -0.0
            ],
            "name": "mesh338_norm_accessor",
            "type": "VEC3"
        },
        {
            "bufferView": 44,
            "componentType": 5125,
            "count": 204,
            "max": [
                69
            ],
            "min": [
                0
            ],
            "name": "mesh338_idx_accessor",
            "type": "SCALAR"
        },
        {
            "bufferView": 45,
            "componentType": 5126,
            "count": 22,
            "max": [
                -0.09271000325679779,
                0.0,
                0.17881600558757782
            ],
            "min": [
                -0.113937146961689,
                -0.00228599994443357,
                0.16656050086021423
            ],
            "name": "mesh339_coord_accessor",
            "type": "VEC3"
        },
        {
            "bufferView": 46,
            "componentType": 5126,
            "count": 22,
            "max": [
                0.0,
                0.0,
                1.0
            ],
            "min": [
                -0.8660253882408142,
                0.0,
                0.5
            ],
            "name": "mesh339_norm_accessor",
            "type": "VEC3"
        },
        {
            "bufferView": 47,
            "componentType": 5125,
            "count": 60,
            "max": [
                21
            ],
            "min": [
                0
            ],
            "name": "mesh339_idx_accessor",
            "type": "SCALAR"
        },
        {
            "bufferView": 48,
            "componentType": 5126,
            "count": 4,
            "max": [
                0.09271000325679779,
                0.0,
                0.17881600558757782
            ],
            "min": [
                -0.09271000325679779,
                -0.00228599994443357,
                0.17881600558757782
            ],
            "name": "mesh340_coord_accessor",
            "type": "VEC3"
        },
        {
            "bufferView": 49,
            "componentType": 5126,
            "count": 4,
            "max": [
                0.0,
                0.0,
                1.0
            ],
            "min": [
                0.0,
                0.0,
                1.0
            ],
            "name": "mesh340_norm_accessor",
            "type": "VEC3"
        },
        {
            "bufferView": 50,
            "componentType": 5125,
            "count": 6,
            "max": [
                3
            ],
            "min": [
                0
            ],
            "name": "mesh340_idx_accessor",
            "type": "SCALAR"
        },
        {
            "bufferView": 51,
            "componentType": 5126,
            "count": 22,
            "max": [
                0.113937146961689,
                0.0,
                0.17881600558757782
            ],
            "min": [
                0.09271000325679779,
                -0.00228599994443357,
                0.16656050086021423
            ],
            "name": "mesh341_coord_accessor",
            "type": "VEC3"
        },
        {
            "bufferView": 52,
            "componentType": 5126,
            "count": 22,
            "max": [
                0.8660253882408142,
                0.0,
                1.0
            ],
            "min": [
                0.0,
                0.0,
                0.5
            ],
            "name": "mesh341_norm_accessor",
            "type": "VEC3"
        },
        {
            "bufferView": 53,
            "componentType": 5125,
            "count": 60,
            "max": [
                21
            ],
            "min": [
                0
            ],
            "name": "mesh341_idx_accessor",
            "type": "SCALAR"
        }
    ],
    "asset": {
        "generator": "ONSHAPE BY PTC INC, 1.215",
        "version": "2.0"
    },
    "bufferViews": [
        {
            "buffer": 0,
            "byteLength": 48,
            "name": "mesh324_coord_bufferView",
            "target": 34962
        },
        {
            "buffer": 0,
            "byteLength": 48,
            "byteOffset": 48,
            "name": "mesh324_norm_bufferView",
            "target": 34962
        },
        {
            "buffer": 0,
            "byteLength": 24,
            "byteOffset": 96,
            "name": "mesh324_idx_bufferView",
            "target": 34963
        },
        {
            "buffer": 0,
            "byteLength": 144,
            "byteOffset": 120,
            "name": "mesh325_coord_bufferView",
            "target": 34962
        },
        {
            "buffer": 0,
            "byteLength": 144,
            "byteOffset": 264,
            "name": "mesh325_norm_bufferView",
            "target": 34962
        },
        {
            "buffer": 0,
            "byteLength": 120,
            "byteOffset": 408,
            "name": "mesh325_idx_bufferView",
            "target": 34963
        },
        {
            "buffer": 0,
            "byteLength": 48,
            "byteOffset": 528,
            "name": "mesh326_coord_bufferView",
            "target": 34962
        },
        {
            "buffer": 0,
            "byteLength": 48,
            "byteOffset": 576,
            "name": "mesh326_norm_bufferView",
            "target": 34962
        },
        {
            "buffer": 0,
            "byteLength": 24,
            "byteOffset": 624,
            "name": "mesh326_idx_bufferView",
            "target": 34963
        },
        {
            "buffer": 0,
            "byteLength": 216,
            "byteOffset": 648,
            "name": "mesh327_coord_bufferView",
            "target": 34962
        },
        {
            "buffer": 0,
            "byteLength": 216,
            "byteOffset": 864,
            "name": "mesh327_norm_bufferView",
            "target": 34962
        },
        {
            "buffer": 0,
            "byteLength": 192,
            "byteOffset": 1080,
            "name": "mesh327_idx_bufferView",
            "target": 34963
        },
        {
            "buffer": 0,
            "byteLength": 48,
            "byteOffset": 1272,
            "name": "mesh328_coord_bufferView",
            "target": 34962
        },
        {
            "buffer": 0,
            "byteLength": 48,
            "byteOffset": 1320,
            "name": "mesh328_norm_bufferView",
            "target": 34962
        },
        {
            "buffer": 0,
            "byteLength": 24,
            "byteOffset": 1368,
            "name": "mesh328_idx_bufferView",
            "target": 34963
        },
        {
            "buffer": 0,
            "byteLength": 216,
            "byteOffset": 1392,
            "name": "mesh329_coord_bufferView",
            "target": 34962
        },
        {
            "buffer": 0,
            "byteLength": 216,
            "byteOffset": 1608,
            "name": "mesh329_norm_bufferView",
            "target": 34962
        },
        {
            "buffer": 0,
            "byteLength": 192,
            "byteOffset": 1824,
            "name": "mesh329_idx_bufferView",
            "target": 34963
        },
        {
            "buffer": 0,
            "byteLength": 48,
            "byteOffset": 2016,
            "name": "mesh330_coord_bufferView",
            "target": 34962
        },
        {
            "buffer": 0,
            "byteLength": 48,
            "byteOffset": 2064,
            "name": "mesh330_norm_bufferView",
            "target": 34962
        },
        {
            "buffer": 0,
            "byteLength": 24,
            "byteOffset": 2112,
            "name": "mesh330_idx_bufferView",
            "target": 34963
        },
        {
            "buffer": 0,
            "byteLength": 216,
            "byteOffset": 2136,
            "name": "mesh331_coord_bufferView",
            "target": 34962
        },
        {
            "buffer": 0,
            "byteLength": 216,
            "byteOffset": 2352,
            "name": "mesh331_norm_bufferView",
            "target": 34962
        },
        {
            "buffer": 0,
            "byteLength": 192,
            "byteOffset": 2568,
            "name": "mesh331_idx_bufferView",
            "target": 34963
        },
        {
            "buffer": 0,
            "byteLength": 48,
            "byteOffset": 2760,
            "name": "mesh332_coord_bufferView",
            "target": 34962
        },
        {
            "buffer": 0,
            "byteLength": 48,
            "byteOffset": 2808,
            "name": "mesh332_norm_bufferView",
            "target": 34962
        },
        {
            "buffer": 0,
            "byteLength": 24,
            "byteOffset": 2856,
            "name": "mesh332_idx_bufferView",
            "target": 34963
        },
        {
            "buffer": 0,
            "byteLength": 216,
            "byteOffset": 2880,
            "name": "mesh333_coord_bufferView",
            "target": 34962
        },
        {
            "buffer": 0,
            "byteLength": 216,
            "byteOffset": 3096,
            "name": "mesh333_norm_bufferView",
            "target": 34962
        },
        {
            "buffer": 0,
            "byteLength": 192,
            "byteOffset": 3312,
            "name": "mesh333_idx_bufferView",
            "target": 34963
        },
        {
            "buffer": 0,
            "byteLength": 48,
            "byteOffset": 3504,
            "name": "mesh334_coord_bufferView",
            "target": 34962
        },
        {
            "buffer": 0,
            "byteLength": 48,
            "byteOffset": 3552,
            "name": "mesh334_norm_bufferView",
            "target": 34962
        },
        {
            "buffer": 0,
            "byteLength": 24,
            "byteOffset": 3600,
            "name": "mesh334_idx_bufferView",
            "target": 34963
        },
        {
            "buffer": 0,
            "byteLength": 144,
            "byteOffset": 3624,
            "name": "mesh335_coord_bufferView",
            "target": 34962
        },
        {
            "buffer": 0,
            "byteLength": 144,
            "byteOffset": 3768,
            "name": "mesh335_norm_bufferView",
            "target": 34962
        },
        {
            "buffer": 0,
            "byteLength": 120,
            "byteOffset": 3912,
            "name": "mesh335_idx_bufferView",
            "target": 34963
        },
        {
            "buffer": 0,
            "byteLength": 48,
            "byteOffset": 4032,
            "name": "mesh336_coord_bufferView",
            "target": 34962
        },
        {
            "buffer": 0,
            "byteLength": 48,
            "byteOffset": 4080,
            "name": "mesh336_norm_bufferView",
            "target": 34962
        },
        {
            "buffer": 0,
            "byteLength": 24,
            "byteOffset": 4128,
            "name": "mesh336_idx_bufferView",
            "target": 34963
        },
        {
            "buffer": 0,
            "byteLength": 840,
            "byteOffset": 4152,
            "name": "mesh337_coord_bufferView",
            "target": 34962
        },
        {
            "buffer": 0,
            "byteLength": 840,
            "byteOffset": 4992,
            "name": "mesh337_norm_bufferView",
            "target": 34962
        },
        {
            "buffer": 0,
            "byteLength": 816,
            "byteOffset": 5832,
            "name": "mesh337_idx_bufferView",
            "target": 34963
        },
        {
            "buffer": 0,
            "byteLength": 840,
            "byteOffset": 6648,
            "name": "mesh338_coord_bufferView",
            "target": 34962
        },
        {
            "buffer": 0,
            "byteLength": 840,
            "byteOffset": 7488,
            "name": "mesh338_norm_bufferView",
            "target": 34962
        },
        {
            "buffer": 0,
            "byteLength": 816,
            "byteOffset": 8328,
            "name": "mesh338_idx_bufferView",
            "target": 34963
        },
        {
            "buffer": 0,
            "byteLength": 264,
            "byteOffset": 9144,
            "name": "mesh339_coord_bufferView",
            "target": 34962
        },
        {
            "buffer": 0,
            "byteLength": 264,
            "byteOffset": 9408,
            "name": "mesh339_norm_bufferView",
            "target": 34962
        },
        {
            "buffer": 0,
            "byteLength": 240,
            "byteOffset": 9672,
            "name": "mesh339_idx_bufferView",
            "target": 34963
        },
        {
            "buffer": 0,
            "byteLength": 48,
            "byteOffset": 9912,
            "name": "mesh340_coord_bufferView",
            "target": 34962
        },
        {
            "buffer": 0,
            "byteLength": 48,
            "byteOffset": 9960,
            "name": "mesh340_norm_bufferView",
            "target": 34962
        },
        {
            "buffer": 0,
            "byteLength": 24,
            "byteOffset": 10008,
            "name": "mesh340_idx_bufferView",
            "target": 34963
        },
        {
            "buffer": 0,
            "byteLength": 264,
            "byteOffset": 10032,
            "name": "mesh341_coord_bufferView",
            "target": 34962
        },
        {
            "buffer": 0,
            "byteLength": 264,
            "byteOffset": 10296,
            "name": "mesh341_norm_bufferView",
            "target": 34962
        },
        {
            "buffer": 0,
            "byteLength": 240,
            "byteOffset": 10560,
            "name": "mesh341_idx_bufferView",
            "target": 34963
        }
    ],
    "buffers": [
        {
            "byteLength": 10800,
            "name": "Total_buffer",
            "uri": "data:application/octet-stream;base64,"
        }
    ],
    "extensionsUsed": [
        "PTC_onshape_metadata"
    ],
    "materials": [
        {
            "doubleSided": true,
            "name": "0.980392_0.713725_0.003922_0.000000_0.000000",
            "pbrMetallicRoughness": {
                "baseColorFactor": [
                    0.9803921580314636,
                    0.7137255072593689,
                    0.003921568859368563,
                    1.0
                ],
                "metallicFactor": 0.0
            }
        },
        {
            "doubleSided": true,
            "name": "0.972549_0.529412_0.003922_0.000000_0.000000",
            "pbrMetallicRoughness": {
                "baseColorFactor": [
                    0.9725490212440491,
                    0.529411792755127,
                    0.003921568859368563,
                    1.0
                ],
                "metallicFactor": 0.0
            }
        },
        {
            "doubleSided": true,
            "name": "0.768627_0.886275_0.952941_0.000000_0.000000",
            "pbrMetallicRoughness": {
                "baseColorFactor": [
                    0.7686274647712708,
                    0.886274516582489,
                    0.9529411792755127,
                    1.0
                ],
                "metallicFactor": 0.0
            }
        },
        {
            "doubleSided": true,
            "name": "0.647059_0.647059_0.647059_0.000000_0.000000",
            "pbrMetallicRoughness": {
                "baseColorFactor": [
                    0.6470588445663452,
                    0.6470588445663452,
                    0.6470588445663452,
                    1.0
                ],
                "metallicFactor": 0.0
            }
        },
        {
            "doubleSided": true,
            "name": "0.231373_0.380392_0.705882_0.000000_0.000000",
            "pbrMetallicRoughness": {
                "baseColorFactor": [
                    0.23137255012989044,
                    0.3803921639919281,
                    0.7058823704719543,
                    1.0
                ],
                "metallicFactor": 0.0
            }
        },
        {
            "doubleSided": true,
            "name": "0.615686_0.811765_0.929412_0.000000_0.000000",
            "pbrMetallicRoughness": {
                "baseColorFactor": [
                    0.615686297416687,
                    0.8117647171020508,
                    0.929411768913269,
                    1.0
                ],
                "metallicFactor": 0.0
            }
        },
        {
            "doubleSided": true,
            "name": "0.917647_0.917647_0.917647_0.000000_0.000000",
            "pbrMetallicRoughness": {
                "baseColorFactor": [
                    0.9176470637321472,
                    0.9176470637321472,
                    0.9176470637321472,
                    1.0
                ],
                "metallicFactor": 0.0
            }
        },
        {
            "doubleSided": true,
            "name": "0.498039_0.498039_0.498039_0.000000_0.000000",
            "pbrMetallicRoughness": {
                "baseColorFactor": [
                    0.49803921580314636,
                    0.49803921580314636,
                    0.49803921580314636,
                    1.0
                ],
                "metallicFactor": 0.0
            }
        }
    ],
    "meshes": [
        {
            "name": "mesh324_mesh",
            "primitives": [
                {
                    "attributes": {
                        "NORMAL": 1,
                        "POSITION": 0
                    },
                    "indices": 2,
                    "material": 5
                }
            ]
        },
        {
            "name": "mesh325_mesh",
            "primitives": [
                {
                    "attributes": {
                        "NORMAL": 4,
                        "POSITION": 3
                    },
                    "indices": 5,
                    "material": 5
                }
            ]
        },
        {
            "name": "mesh326_mesh",
            "primitives": [
                {
                    "attributes": {
                        "NORMAL": 7,
                        "POSITION": 6
                    },
                    "indices": 8,
                    "material": 5
                }
            ]
        },
        {
            "name": "mesh327_mesh",
            "primitives": [
                {
                    "attributes": {
                        "NORMAL": 10,
                        "POSITION": 9
                    },
                    "indices": 11,
                    "material": 5
                }
            ]
        },
        {
            "name": "mesh328_mesh",
            "primitives": [
                {
                    "attributes": {
                        "NORMAL": 13,
                        "POSITION": 12
                    },
                    "indices": 14,
                    "material": 5
                }
            ]
        },
        {
            "name": "mesh329_mesh",
            "primitives": [
                {
                    "attributes": {
                        "NORMAL": 16,
                        "POSITION": 15
                    },
                    "indices": 17,
                    "material": 5
                }
            ]
        },
        {
            "name": "mesh330_mesh",
            "primitives": [
                {
                    "attributes": {
                        "NORMAL": 19,
                        "POSITION": 18
                    },
                    "indices": 20,
                    "material": 5
                }
            ]
        },
        {
            "name": "mesh331_mesh",
            "primitives": [
                {
                    "attributes": {
                        "NORMAL": 22,
                        "POSITION": 21
                    },
                    "indices": 23,
                    "material": 5
                }
            ]
        },
        {
            "name": "mesh332_mesh",
            "primitives": [
                {
                    "attributes": {
                        "NORMAL": 25,
                        "POSITION": 24
                    },
                    "indices": 26,
                    "material": 5
                }
            ]
        },
        {
            "name": "mesh333_mesh",
            "primitives": [
                {
                    "attributes": {
                        "NORMAL": 28,
                        "POSITION": 27
                    },
                    "indices": 29,
                    "material": 5
                }
            ]
        },
        {
            "name": "mesh334_mesh",
            "primitives": [
                {
                    "attributes": {
                        "NORMAL": 31,
                        "POSITION": 30
                    },
                    "indices": 32,
                    "material": 5
                }
            ]
        },
        {
            "name": "mesh335_mesh",
            "primitives": [
                {
                    "attributes": {
                        "NORMAL": 34,
                        "POSITION": 33
                    },
                    "indices": 35,
                    "material": 5
                }
            ]
        },
        {
            "name": "mesh336_mesh",
            "primitives": [
                {
                    "attributes": {
                        "NORMAL": 37,
                        "POSITION": 36
                    },
                    "indices": 38,
                    "material": 5
                }
            ]
        },
        {
            "name": "mesh337_mesh",
            "primitives": [
                {
                    "attributes": {
                        "NORMAL": 40,
                        "POSITION": 39
                    },
                    "indices": 41,
                    "material": 5
                }
            ]
        },
        {
            "name": "mesh338_mesh",
            "primitives": [
                {
                    "attributes": {
                        "NORMAL": 43,
                        "POSITION": 42
                    },
                    "indices": 44,
                    "material": 5
                }
            ]
        },
        {
            "name": "mesh339_mesh",
            "primitives": [
                {
                    "attributes": {
                        "NORMAL": 46,
                        "POSITION": 45
                    },
                    "indices": 47,
                    "material": 5
                }
            ]
        },
        {
            "name": "mesh340_mesh",
            "primitives": [
                {
                    "attributes": {
                        "NORMAL": 49,
                        "POSITION": 48
                    },
                    "indices": 50,
                    "material": 5
                }
            ]
        },
        {
            "name": "mesh341_mesh",
            "primitives": [
                {
                    "attributes": {
                        "NORMAL": 52,
                        "POSITION": 51
                    },
                    "indices": 53,
                    "material": 5
                }
            ]
        }
    ],
    "nodes": [
        {
            "mesh": 0,
            "name": "mesh324"
        },
        {
            "mesh": 1,
            "name": "mesh325"
        },
        {
            "mesh": 2,
            "name": "mesh326"
        },
        {
            "mesh": 3,
            "name": "mesh327"
        },
        {
            "mesh": 4,
            "name": "mesh328"
        },
        {
            "mesh": 5,
            "name": "mesh329"
        },
        {
            "mesh": 6,
            "name": "mesh330"
        },
        {
            "mesh": 7,
            "name": "mesh331"
        },
        {
            "mesh": 8,
            "name": "mesh332"
        },
        {
            "mesh": 9,
            "name": "mesh333"
        },
        {
            "mesh": 10,
            "name": "mesh334"
        },
        {
            "mesh": 11,
            "name": "mesh335"
        },
        {
            "mesh": 12,
            "name": "mesh336"
        },
        {
            "mesh": 13,
            "name": "mesh337"
        },
        {
            "mesh": 14,
            "name": "mesh338"
        },
        {
            "mesh": 15,
            "name": "mesh339"
        },
        {
            "mesh": 16,
            "name": "mesh340"
        },
        {
            "mesh": 17,
            "name": "mesh341"
        }
    ],
    "scene": 0,
    "scenes": [
        {
            "name": "Root",
            "nodes": [
                0,
                1,
                2,
                3,
                4,
                5,
                6,
                7,
                8,
                9,
                10,
                11,
                12,
                13,
                14,
                15,
                16,
                17
            ]
        }
    ]
}