{
    "accessors": [
        {
            "bufferView": 0,
            "componentType": 5126,
            "count": 4,
            "max": [
                0.08924820274114609,
                0.05885979160666466,
                0.2020263969898224
            ],
            "min": [
                -0.08381769061088562,
                -0.08992747217416763,
                0.2020263969898224
            ],
            "name": "mesh342_coord_accessor",
            "type": "VEC3"
        },
        {
            "bufferView": 1,
            "componentType": 5126,
            "count": 4,
            "max": [
                0.0,
                -2.465190328815662e-31,
                -1.0
            ],
            "min": [
                0.0,
                -2.465190328815662e-31,
                -1.0
            ],
            "name": "mesh342_norm_accessor",
            "type": "VEC3"
        },
        {
            "bufferView": 2,
            "componentType": 5125,
            "count": 6,
            "max": [
                3
            ],
            "min": [
                0
            ],
            "name": "mesh342_idx_accessor",
            "type": "SCALAR"
        },
        {
            "bufferView": 3,
            "componentType": 5126,
            "count": 4,
            "max": [
                0.08924820274114609,
                0.05885979160666466,
                0.20253439247608185
            ],
            "min": [
                0.08924820274114609,
                -0.08992747217416763,
                0.2020263969898224
            ],
            "name": "mesh343_coord_accessor",
            "type": "VEC3"
        },
        {
            "bufferView": 4,
            "componentType": 5126,
            "count": 4,
            "max": [
                1.0,
                0.0,
                1.4969029618185032e-16
            ],
            "min": [
                1.0,
                0.0,
                1.4969029618185032e-16
            ],
            "name": "mesh343_norm_accessor",
            "type": "VEC3"
        },
        {
            "bufferView": 5,
            "componentType": 5125,
            "count": 6,
            "max": [
                3
            ],
            "min": [
                0
            ],
            "name": "mesh343_idx_accessor",
            "type": "SCALAR"
        },
        {
            "bufferView": 6,
            "componentType": 5126,
            "count": 4,
            "max": [
                0.08924820274114609,
                0.05885979160666466,
                0.20253439247608185
            ],
            "min": [
                -0.08381769061088562,
                0.05885979160666466,
                0.2020263969898224
            ],
            "name": "mesh344_coord_accessor",
            "type": "VEC3"
        },
        {
            "bufferView": 7,
            "componentType": 5126,
            "count": 4,
            "max": [
                0.0,
                1.0,
                -1.1832913578315177e-30
            ],
            "min": [
                0.0,
                1.0,
                -1.1832913578315177e-30
            ],
            "name": "mesh344_norm_accessor",
            "type": "VEC3"
        },
        {
            "bufferView": 8,
            "componentType": 5125,
            "count": 6,
            "max": [
                3
            ],
            "min": [
                0
            ],
            "name": "mesh344_idx_accessor",
            "type": "SCALAR"
        },
        {
            "bufferView": 9,
            "componentType": 5126,
            "count": 4,
            "max": [
                -0.08381769061088562,
                0.05885979160666466,
                0.20253439247608185
            ],
            "min": [
                -0.08381769061088562,
                -0.08992747217416763,
                0.2020263969898224
            ],
            "name": "mesh345_coord_accessor",
            "type": "VEC3"
        },
        {
            "bufferView": 10,
            "componentType": 5126,
            "count": 4,
            "max": [
                -1.0,
                -0.0,
                -1.4969029618185032e-16
            ],
            "min": [
                -1.0,
                -0.0,
                -1.4969029618185032e-16
            ],
            "name": "mesh345_norm_accessor",
            "type": "VEC3"
        },
        {
            "bufferView": 11,
            "componentType": 5125,
            "count": 6,
            "max": [
                3
            ],
            "min": [
                0
            ],
            "name": "mesh345_idx_accessor",
            "type": "SCALAR"
        },
        {
            "bufferView": 12,
            "componentType": 5126,
            "count": 4,
            "max": [
                0.08924820274114609,
                -0.08992747217416763,
                0.20253439247608185
            ],
            "min": [
                -0.08381769061088562,
                -0.08992747217416763,
                0.2020263969898224
            ],
            "name": "mesh346_coord_accessor",
            "type": "VEC3"
        },
        {
            "bufferView": 13,
            "componentType": 5126,
            "count": 4,
            "max": [
                0.0,
                -1.0,
                1.1832913578315177e-30
            ],
            "min": [
                0.0,
                -1.0,
                1.1832913578315177e-30
            ],
            "name": "mesh346_norm_accessor",
            "type": "VEC3"
        },
        {
            "bufferView": 14,
            "componentType": 5125,
            "count": 6,
            "max": [
                3
            ],
            "min": [
                0
            ],
            "name": "mesh346_idx_accessor",
            "type": "SCALAR"
        },
        {
            "bufferView": 15,
            "componentType": 5126,
            "count": 8,
            "max": [
                0.09271000325679779,
                0.09372600167989731,
                0.20253439247608185
            ],
            "min": [
                -0.09271000325679779,
                -0.09372600167989731,
                0.20253439247608185
            ],
            "name": "mesh347_coord_accessor",
            "type": "VEC3"
        },
        {
            "bufferView": 16,
            "componentType": 5126,
            "count": 8,
            "max": [
                1.4969029618185032e-16,
                -1.1832913578315177e-30,
                -1.0
            ],
            "min": [
                1.4969029618185032e-16,
                -1.1832913578315177e-30,
                -1.0
            ],
            "name": "mesh347_norm_accessor",
            "type": "VEC3"
        },
        {
            "bufferView": 17,
            "componentType": 5125,
            "count": 24,
            "max": [
                7
            ],
            "min": [
                0
            ],
            "name": "mesh347_idx_accessor",
            "type": "SCALAR"
        },
        {
            "bufferView": 18,
            "componentType": 5126,
            "count": 18,
            "max": [
                0.10860505700111389,
                0.09372600167989731,
                0.20253439247608185
            ],
            "min": [
                0.09271000325679779,
                -0.09372600167989731,
                0.195950448513031
            ],
            "name": "mesh348_coord_accessor",
            "type": "VEC3"
        },
        {
            "bufferView": 19,
            "componentType": 5126,
            "count": 18,
            "max": [
                -0.0,
                -0.0,
                -0.7071067690849304
            ],
            "min": [
                -0.7071067690849304,
                -1.177593501614212e-30,
                -1.0
            ],
            "name": "mesh348_norm_accessor",
            "type": "VEC3"
        },
        {
            "bufferView": 20,
            "componentType": 5125,
            "count": 48,
            "max": [
                17
            ],
            "min": [
                0
            ],
            "name": "mesh348_idx_accessor",
            "type": "SCALAR"
        },
        {
            "bufferView": 21,
            "componentType": 5126,
            "count": 4,
            "max": [
                0.1548965573310852,
                0.09372600167989731,
                0.195950448513031
            ],
            "min": [
                0.10860505700111389,
                -0.09372600167989731,
                0.1496589481830597
            ],
            "name": "mesh349_coord_accessor",
            "type": "VEC3"
        },
        {
            "bufferView": 22,
            "componentType": 5126,
            "count": 4,
            "max": [
                -0.7071067690849304,
                -9.367723249499515e-31,
                -0.7071067690849304
            ],
            "min": [
                -0.7071067690849304,
                -9.367723249499515e-31,
                -0.7071067690849304
            ],
            "name": "mesh349_norm_accessor",
            "type": "VEC3"
        },
        {
            "bufferView": 23,
            "componentType": 5125,
            "count": 6,
            "max": [
                3
            ],
            "min": [
                0
            ],
            "name": "mesh349_idx_accessor",
            "type": "SCALAR"
        },
        {
            "bufferView": 24,
            "componentType": 5126,
            "count": 18,
            "max": [
                0.16148050129413605,
                0.09372600167989731,
                0.1496589481830597
            ],
            "min": [
                0.1548965573310852,
                -0.09372600167989731,
                0.1337638944387436
            ],
            "name": "mesh350_coord_accessor",
            "type": "VEC3"
        },
        {
            "bufferView": 25,
            "componentType": 5126,
            "count": 18,
            "max": [
                -0.7071067690849304,
                -0.0,
                -9.867446398655548e-30
            ],
            "min": [
                -1.0,
                -7.506721030283338e-31,
                -0.7071067690849304
            ],
            "name": "mesh350_norm_accessor",
            "type": "VEC3"
        },
        {
            "bufferView": 26,
            "componentType": 5125,
            "count": 48,
            "max": [
                17
            ],
            "min": [
                0
            ],
            "name": "mesh350_idx_accessor",
            "type": "SCALAR"
        },
        {
            "bufferView": 27,
            "componentType": 5126,
            "count": 4,
            "max": [
                0.16148050129413605,
                0.09372600167989731,
                0.1337638944387436
            ],
            "min": [
                0.16148050129413605,
                -0.09372600167989731,
                -8.881784197001252e-16
            ],
            "name": "mesh351_coord_accessor",
            "type": "VEC3"
        },
        {
            "bufferView": 28,
            "componentType": 5126,
            "count": 4,
            "max": [
                -1.0,
                -0.0,
                -2.074967743512693e-16
            ],
            "min": [
                -1.0,
                -0.0,
                -2.074967743512693e-16
            ],
            "name": "mesh351_norm_accessor",
            "type": "VEC3"
        },
        {
            "bufferView": 29,
            "componentType": 5125,
            "count": 6,
            "max": [
                3
            ],
            "min": [
                0
            ],
            "name": "mesh351_idx_accessor",
            "type": "SCALAR"
        },
        {
            "bufferView": 30,
            "componentType": 5126,
            "count": 10,
            "max": [
                0.16148050129413605,
                0.09372600167989731,
                -8.881784197001252e-16
            ],
            "min": [
                0.1604318767786026,
                -0.09372600167989731,
                -0.005053259897977114
            ],
            "name": "mesh352_coord_accessor",
            "type": "VEC3"
        },
        {
            "bufferView": 31,
            "componentType": 5126,
            "count": 10,
            "max": [
                -0.9174311757087708,
                3.574956442813981e-31,
                0.3978944718837738
            ],
            "min": [
                -1.0,
                -0.0,
                6.566397274011815e-14
            ],
            "name": "mesh352_norm_accessor",
            "type": "VEC3"
        },
        {
            "bufferView": 32,
            "componentType": 5125,
            "count": 24,
            "max": [
                9
            ],
            "min": [
                0
            ],
            "name": "mesh352_idx_accessor",
            "type": "SCALAR"
        },
        {
            "bufferView": 33,
            "componentType": 5126,
            "count": 10,
            "max": [
                0.1604318767786026,
                0.09372600167989731,
                -0.005053259897977114
            ],
            "min": [
                0.15919449925422668,
                -0.09372600167989731,
                -0.011016106233000755
            ],
            "name": "mesh353_coord_accessor",
            "type": "VEC3"
        },
        {
            "bufferView": 34,
            "componentType": 5126,
            "count": 10,
            "max": [
                -0.9174311757087708,
                4.708250781540618e-31,
                0.3978944718837738
            ],
            "min": [
                -1.0,
                -0.0,
                6.566397274011815e-14
            ],
            "name": "mesh353_norm_accessor",
            "type": "VEC3"
        },
        {
            "bufferView": 35,
            "componentType": 5125,
            "count": 24,
            "max": [
                9
            ],
            "min": [
                0
            ],
            "name": "mesh353_idx_accessor",
            "type": "SCALAR"
        },
        {
            "bufferView": 36,
            "componentType": 5126,
            "count": 18,
            "max": [
                -0.09271000325679779,
                0.09372600167989731,
                0.20253439247608185
            ],
            "min": [
                -0.10860505700111389,
                -0.09372600167989731,
                0.195950448513031
            ],
            "name": "mesh354_coord_accessor",
            "type": "VEC3"
        },
        {
            "bufferView": 37,
            "componentType": 5126,
            "count": 18,
            "max": [
                0.7071067690849304,
                -0.0,
                -0.7071067690849304
            ],
            "min": [
                -0.0,
                -1.177593501614212e-30,
                -1.0
            ],
            "name": "mesh354_norm_accessor",
            "type": "VEC3"
        },
        {
            "bufferView": 38,
            "componentType": 5125,
            "count": 48,
            "max": [
                17
            ],
            "min": [
                0
            ],
            "name": "mesh354_idx_accessor",
            "type": "SCALAR"
        },
        {
            "bufferView": 39,
            "componentType": 5126,
            "count": 4,
            "max": [
                -0.10860505700111389,
                0.09372600167989731,
                0.195950448513031
            ],
            "min": [
                -0.1548965573310852,
                -0.09372600167989731,
                0.1496589481830597
            ],
            "name": "mesh355_coord_accessor",
            "type": "VEC3"
        },
        {
            "bufferView": 40,
            "componentType": 5126,
            "count": 4,
            "max": [
                0.7071067690849304,
                -0.0,
                -0.7071067690849304
            ],
            "min": [
                0.7071067690849304,
                -0.0,
                -0.7071067690849304
            ],
            "name": "mesh355_norm_accessor",
            "type": "VEC3"
        },
        {
            "bufferView": 41,
            "componentType": 5125,
            "count": 6,
            "max": [
                3
            ],
            "min": [
                0
            ],
            "name": "mesh355_idx_accessor",
            "type": "SCALAR"
        },
        {
            "bufferView": 42,
            "componentType": 5126,
            "count": 18,
            "max": [
                -0.1548965573310852,
                0.09372600167989731,
                0.1496589481830597
            ],
            "min": [
                -0.16148050129413605,
                -0.09372600167989731,
                0.1337638944387436
            ],
            "name": "mesh356_coord_accessor",
            "type": "VEC3"
        },
        {
            "bufferView": 43,
            "componentType": 5126,
            "count": 18,
            "max": [
                1.0,
                -0.0,
                -9.867446398655548e-30
            ],
            "min": [
                0.7071067690849304,
                -7.506721030283338e-31,
                -0.7071067690849304
            ],
            "name": "mesh356_norm_accessor",
            "type": "VEC3"
        },
        {
            "bufferView": 44,
            "componentType": 5125,
            "count": 48,
            "max": [
                17
            ],
            "min": [
                0
            ],
            "name": "mesh356_idx_accessor",
            "type": "SCALAR"
        },
        {
            "bufferView": 45,
            "componentType": 5126,
            "count": 4,
            "max": [
                -0.16148050129413605,
                0.09372600167989731,
                0.1337638944387436
            ],
            "min": [
                -0.16148050129413605,
                -0.09372600167989731,
                -5.66776280961903e-17
            ],
            "name": "mesh357_coord_accessor",
            "type": "VEC3"
        },
        {
            "bufferView": 46,
            "componentType": 5126,
            "count": 4,
            "max": [
                1.0,
                -0.0,
                -9.867446398655548e-30
            ],
            "min": [
                1.0,
                -0.0,
                -9.867446398655548e-30
            ],
            "name": "mesh357_norm_accessor",
            "type": "VEC3"
        },
        {
            "bufferView": 47,
            "componentType": 5125,
            "count": 6,
            "max": [
                3
            ],
            "min": [
                0
            ],
            "name": "mesh357_idx_accessor",
            "type": "SCALAR"
        },
        {
            "bufferView": 48,
            "componentType": 5126,
            "count": 10,
            "max": [
                -0.1604318767786026,
                0.09372600167989731,
                -5.652806722399582e-17
            ],
            "min": [
                -0.16148050129413605,
                -0.09372600167989731,
                -0.005053259897977114
            ],
            "name": "mesh358_coord_accessor",
            "type": "VEC3"
        },
        {
            "bufferView": 49,
            "componentType": 5126,
            "count": 10,
            "max": [
                1.0,
                3.574956442813981e-31,
                0.3978944718837738
            ],
            "min": [
                0.9174311757087708,
                -0.0,
                1.8369701465288538e-16
            ],
            "name": "mesh358_norm_accessor",
            "type": "VEC3"
        },
        {
            "bufferView": 50,
            "componentType": 5125,
            "count": 24,
            "max": [
                9
            ],
            "min": [
                0
            ],
            "name": "mesh358_idx_accessor",
            "type": "SCALAR"
        },
        {
            "bufferView": 51,
            "componentType": 5126,
            "count": 10,
            "max": [
                -0.15919449925422668,
                0.09372600167989731,
                -0.005053259897977114
            ],
            "min": [
                -0.1604318767786026,
                -0.09372600167989731,
                -0.011016106233000755
            ],
            "name": "mesh359_coord_accessor",
            "type": "VEC3"
        },
        {
            "bufferView": 52,
            "componentType": 5126,
            "count": 10,
            "max": [
                1.0,
                3.574956442813981e-31,
                0.3978944718837738
            ],
            "min": [
                0.9174311757087708,
                -0.0,
                4.051469548033409e-15
            ],
            "name": "mesh359_norm_accessor",
            "type": "VEC3"
        },
        {
            "bufferView": 53,
            "componentType": 5125,
            "count": 24,
            "max": [
                9
            ],
            "min": [
                0
            ],
            "name": "mesh359_idx_accessor",
            "type": "SCALAR"
        },
        {
            "bufferView": 54,
            "componentType": 5126,
            "count": 34,
            "max": [
                -0.15919449925422668,
                0.09372600167989731,
                -0.011016106233000755
            ],
            "min": [
                -0.15919449925422668,
                -0.09372600167989731,
                -0.03133610635995865
            ],
            "name": "mesh360_coord_accessor",
            "type": "VEC3"
        },
        {
            "bufferView": 55,
            "componentType": 5126,
            "count": 34,
            "max": [
                1.0,
                4.203895392974451e-45,
                4.051469548033409e-15
            ],
            "min": [
                1.0,
                4.203895392974451e-45,
                4.051469548033409e-15
            ],
            "name": "mesh360_norm_accessor",
            "type": "VEC3"
        },
        {
            "bufferView": 56,
            "componentType": 5125,
            "count": 96,
            "max": [
                33
            ],
            "min": [
                0
            ],
            "name": "mesh360_idx_accessor",
            "type": "SCALAR"
        },
        {
            "bufferView": 57,
            "componentType": 5126,
            "count": 4,
            "max": [
                -0.15919449925422668,
                0.09118600189685822,
                -0.03133610635995865
            ],
            "min": [
                -0.16122649610042572,
                -0.09118600189685822,
                -0.03133610635995865
            ],
            "name": "mesh361_coord_accessor",
            "type": "VEC3"
        },
        {
            "bufferView": 58,
            "componentType": 5126,
            "count": 4,
            "max": [
                0.0,
                -1.1832913578315177e-30,
                -1.0
            ],
            "min": [
                0.0,
                -1.1832913578315177e-30,
                -1.0
            ],
            "name": "mesh361_norm_accessor",
            "type": "VEC3"
        },
        {
            "bufferView": 59,
            "componentType": 5125,
            "count": 6,
            "max": [
                3
            ],
            "min": [
                0
            ],
            "name": "mesh361_idx_accessor",
            "type": "SCALAR"
        },
        {
            "bufferView": 60,
            "componentType": 5126,
            "count": 32,
            "max": [
                -0.15919449925422668,
                -0.09118600189685822,
                -0.028796106576919556
            ],
            "min": [
                -0.16122649610042572,
                -0.09372600167989731,
                -0.03133610635995865
            ],
            "name": "mesh362_coord_accessor",
            "type": "VEC3"
        },
        {
            "bufferView": 61,
            "componentType": 5126,
            "count": 32,
            "max": [
                0.0,
                0.0,
                0.0
            ],
            "min": [
                0.0,
                -1.0,
                -1.0
            ],
            "name": "mesh362_norm_accessor",
            "type": "VEC3"
        },
        {
            "bufferView": 62,
            "componentType": 5125,
            "count": 90,
            "max": [
                31
            ],
            "min": [
                0
            ],
            "name": "mesh362_idx_accessor",
            "type": "SCALAR"
        },
        {
            "bufferView": 63,
            "componentType": 5126,
            "count": 32,
            "max": [
                -0.15919449925422668,
                0.09372600167989731,
                -0.028796106576919556
            ],
            "min": [
                -0.16122649610042572,
                0.09118600189685822,
                -0.03133610635995865
            ],
            "name": "mesh363_coord_accessor",
            "type": "VEC3"
        },
        {
            "bufferView": 64,
            "componentType": 5126,
            "count": 32,
            "max": [
                0.0,
                1.0,
                0.0
            ],
            "min": [
                0.0,
                0.0,
                -1.0
            ],
            "name": "mesh363_norm_accessor",
            "type": "VEC3"
        },
        {
            "bufferView": 65,
            "componentType": 5125,
            "count": 90,
            "max": [
                31
            ],
            "min": [
                0
            ],
            "name": "mesh363_idx_accessor",
            "type": "SCALAR"
        },
        {
            "bufferView": 66,
            "componentType": 5126,
            "count": 34,
            "max": [
                -0.16122649610042572,
                0.09372600167989731,
                -0.011016106233000755
            ],
            "min": [
                -0.16122649610042572,
                -0.09372600167989731,
                -0.03133610635995865
            ],
            "name": "mesh364_coord_accessor",
            "type": "VEC3"
        },
        {
            "bufferView": 67,
            "componentType": 5126,
            "count": 34,
            "max": [
                -1.0,
                -0.0,
                -0.0
            ],
            "min": [
                -1.0,
                -0.0,
                -0.0
            ],
            "name": "mesh364_norm_accessor",
            "type": "VEC3"
        },
        {
            "bufferView": 68,
            "componentType": 5125,
            "count": 96,
            "max": [
                33
            ],
            "min": [
                0
            ],
            "name": "mesh364_idx_accessor",
            "type": "SCALAR"
        },
        {
            "bufferView": 69,
            "componentType": 5126,
            "count": 10,
            "max": [
                -0.16122649610042572,
                0.09372600167989731,
                -0.005861781071871519
            ],
            "min": [
                -0.1622961014509201,
                -0.09372600167989731,
                -0.011016106233000755
            ],
            "name": "mesh365_coord_accessor",
            "type": "VEC3"
        },
        {
            "bufferView": 70,
            "componentType": 5126,
            "count": 10,
            "max": [
                -0.9174311757087708,
                -0.0,
                -0.0
            ],
            "min": [
                -1.0,
                -3.574956442813981e-31,
                -0.3978944718837738
            ],
            "name": "mesh365_norm_accessor",
            "type": "VEC3"
        },
        {
            "bufferView": 71,
            "componentType": 5125,
            "count": 24,
            "max": [
                9
            ],
            "min": [
                0
            ],
            "name": "mesh365_idx_accessor",
            "type": "SCALAR"
        },
        {
            "bufferView": 72,
            "componentType": 5126,
            "count": 10,
            "max": [
                -0.1622961014509201,
                0.09372600167989731,
                -5.551115123125783e-17
            ],
            "min": [
                -0.16351249814033508,
                -0.09372600167989731,
                -0.005861781071871519
            ],
            "name": "mesh366_coord_accessor",
            "type": "VEC3"
        },
        {
            "bufferView": 73,
            "componentType": 5126,
            "count": 10,
            "max": [
                -0.9174311757087708,
                -0.0,
                -1.8369701465288538e-16
            ],
            "min": [
                -1.0,
                -3.574956442813981e-31,
                -0.3978944718837738
            ],
            "name": "mesh366_norm_accessor",
            "type": "VEC3"
        },
        {
            "bufferView": 74,
            "componentType": 5125,
            "count": 24,
            "max": [
                9
            ],
            "min": [
                0
            ],
            "name": "mesh366_idx_accessor",
            "type": "SCALAR"
        },
        {
            "bufferView": 75,
            "componentType": 5126,
            "count": 4,
            "max": [
                -0.16351249814033508,
                0.09372600167989731,
                0.1337638944387436
            ],
            "min": [
                -0.16351249814033508,
                -0.09372600167989731,
                -5.551115123125783e-17
            ],
            "name": "mesh367_coord_accessor",
            "type": "VEC3"
        },
        {
            "bufferView": 76,
            "componentType": 5126,
            "count": 4,
            "max": [
                -1.0,
                -0.0,
                -1.8369701465288538e-16
            ],
            "min": [
                -1.0,
                -0.0,
                -1.8369701465288538e-16
            ],
            "name": "mesh367_norm_accessor",
            "type": "VEC3"
        },
        {
            "bufferView": 77,
            "componentType": 5125,
            "count": 6,
            "max": [
                3
            ],
            "min": [
                0
            ],
            "name": "mesh367_idx_accessor",
            "type": "SCALAR"
        },
        {
            "bufferView": 78,
            "componentType": 5126,
            "count": 18,
            "max": [
                -0.15633338689804077,
                0.09372600167989731,
                0.15109579265117645
            ],
            "min": [
                -0.16351249814033508,
                -0.09372600167989731,
                0.1337638944387436
            ],
            "name": "mesh368_coord_accessor",
            "type": "VEC3"
        },
        {
            "bufferView": 79,
            "componentType": 5126,
            "count": 18,
            "max": [
                -0.7071067690849304,
                8.367133054124777e-31,
                0.7071067690849304
            ],
            "min": [
                -1.0,
                -0.0,
                -1.8369701465288538e-16
            ],
            "name": "mesh368_norm_accessor",
            "type": "VEC3"
        },
        {
            "bufferView": 80,
            "componentType": 5125,
            "count": 48,
            "max": [
                17
            ],
            "min": [
                0
            ],
            "name": "mesh368_idx_accessor",
            "type": "SCALAR"
        },
        {
            "bufferView": 81,
            "componentType": 5126,
            "count": 4,
            "max": [
                -0.11004189401865005,
                0.09372600167989731,
                0.19738729298114777
            ],
            "min": [
                -0.15633338689804077,
                -0.09372600167989731,
                0.15109579265117645
            ],
            "name": "mesh369_coord_accessor",
            "type": "VEC3"
        },
        {
            "bufferView": 82,
            "componentType": 5126,
            "count": 4,
            "max": [
                -0.7071067690849304,
                8.367133054124777e-31,
                0.7071067690849304
            ],
            "min": [
                -0.7071067690849304,
                8.367133054124777e-31,
                0.7071067690849304
            ],
            "name": "mesh369_norm_accessor",
            "type": "VEC3"
        },
        {
            "bufferView": 83,
            "componentType": 5125,
            "count": 6,
            "max": [
                3
            ],
            "min": [
                0
            ],
            "name": "mesh369_idx_accessor",
            "type": "SCALAR"
        },
        {
            "bufferView": 84,
            "componentType": 5126,
            "count": 18,
            "max": [
                -0.09271000325679779,
                0.09372600167989731,
                0.20456638932228088
            ],
            "min": [
                -0.11004189401865005,
                -0.09372600167989731,
                0.19738729298114777
            ],
            "name": "mesh370_coord_accessor",
            "type": "VEC3"
        },
        {
            "bufferView": 85,
            "componentType": 5126,
            "count": 18,
            "max": [
                0.0,
                1.1832913578315177e-30,
                1.0
            ],
            "min": [
                -0.7071067690849304,
                8.367133054124777e-31,
                0.7071067690849304
            ],
            "name": "mesh370_norm_accessor",
            "type": "VEC3"
        },
        {
            "bufferView": 86,
            "componentType": 5125,
            "count": 48,
            "max": [
                17
            ],
            "min": [
                0
            ],
            "name": "mesh370_idx_accessor",
            "type": "SCALAR"
        },
        {
            "bufferView": 87,
            "componentType": 5126,
            "count": 4,
            "max": [
                0.09271000325679779,
                0.09372600167989731,
                0.20456638932228088
            ],
            "min": [
                -0.09271000325679779,
                -0.09372600167989731,
                0.20456638932228088
            ],
            "name": "mesh371_coord_accessor",
            "type": "VEC3"
        },
        {
            "bufferView": 88,
            "componentType": 5126,
            "count": 4,
            "max": [
                0.0,
                1.1832913578315177e-30,
                1.0
            ],
            "min": [
                0.0,
                1.1832913578315177e-30,
                1.0
            ],
            "name": "mesh371_norm_accessor",
            "type": "VEC3"
        },
        {
            "bufferView": 89,
            "componentType": 5125,
            "count": 6,
            "max": [
                3
            ],
            "min": [
                0
            ],
            "name": "mesh371_idx_accessor",
            "type": "SCALAR"
        },
        {
            "bufferView": 90,
            "componentType": 5126,
            "count": 18,
            "max": [
                0.11004189401865005,
                0.09372600167989731,
                0.20456638932228088
            ],
            "min": [
                0.09271000325679779,
                -0.09372600167989731,
                0.19738729298114777
            ],
            "name": "mesh372_coord_accessor",
            "type": "VEC3"
        },
        {
            "bufferView": 91,
            "componentType": 5126,
            "count": 18,
            "max": [
                0.7071067690849304,
                1.1832913578315177e-30,
                1.0
            ],
            "min": [
                0.0,
                8.367133054124777e-31,
                0.7071067690849304
            ],
            "name": "mesh372_norm_accessor",
            "type": "VEC3"
        },
        {
            "bufferView": 92,
            "componentType": 5125,
            "count": 48,
            "max": [
                17
            ],
            "min": [
                0
            ],
            "name": "mesh372_idx_accessor",
            "type": "SCALAR"
        },
        {
            "bufferView": 93,
            "componentType": 5126,
            "count": 4,
            "max": [
                0.15633338689804077,
                0.09372600167989731,
                0.19738729298114777
            ],
            "min": [
                0.11004189401865005,
                -0.09372600167989731,
                0.15109579265117645
            ],
            "name": "mesh373_coord_accessor",
            "type": "VEC3"
        },
        {
            "bufferView": 94,
            "componentType": 5126,
            "count": 4,
            "max": [
                0.7071067690849304,
                8.367133054124777e-31,
                0.7071067690849304
            ],
            "min": [
                0.7071067690849304,
                8.367133054124777e-31,
                0.7071067690849304
            ],
            "name": "mesh373_norm_accessor",
            "type": "VEC3"
        },
        {
            "bufferView": 95,
            "componentType": 5125,
            "count": 6,
            "max": [
                3
            ],
            "min": [
                0
            ],
            "name": "mesh373_idx_accessor",
            "type": "SCALAR"
        },
        {
            "bufferView": 96,
            "componentType": 5126,
            "count": 18,
            "max": [
                0.16351249814033508,
                0.09372600167989731,
                0.15109579265117645
            ],
            "min": [
                0.15633338689804077,
                -0.09372600167989731,
                0.1337638944387436
            ],
            "name": "mesh374_coord_accessor",
            "type": "VEC3"
        },
        {
            "bufferView": 97,
            "componentType": 5126,
            "count": 18,
            "max": [
                1.0,
                8.367133054124777e-31,
                0.7071067690849304
            ],
            "min": [
                0.7071067690849304,
                0.0,
                0.0
            ],
            "name": "mesh374_norm_accessor",
            "type": "VEC3"
        },
        {
            "bufferView": 98,
            "componentType": 5125,
            "count": 48,
            "max": [
                17
            ],
            "min": [
                0
            ],
            "name": "mesh374_idx_accessor",
            "type": "SCALAR"
        },
        {
            "bufferView": 99,
            "componentType": 5126,
            "count": 4,
            "max": [
                0.16351249814033508,
                0.09372600167989731,
                0.1337638944387436
            ],
            "min": [
                0.16351249814033508,
                -0.09372600167989731,
                -8.875706206209111e-16
            ],
            "name": "mesh375_coord_accessor",
            "type": "VEC3"
        },
        {
            "bufferView": 100,
            "componentType": 5126,
            "count": 4,
            "max": [
                1.0,
                0.0,
                0.0
            ],
            "min": [
                1.0,
                0.0,
                0.0
            ],
            "name": "mesh375_norm_accessor",
            "type": "VEC3"
        },
        {
            "bufferView": 101,
            "componentType": 5125,
            "count": 6,
            "max": [
                3
            ],
            "min": [
                0
            ],
            "name": "mesh375_idx_accessor",
            "type": "SCALAR"
        },
        {
            "bufferView": 102,
            "componentType": 5126,
            "count": 10,
            "max": [
                0.16351249814033508,
                0.09372600167989731,
                -8.874408128217443e-16
            ],
            "min": [
                0.1622961014509201,
                -0.09372600167989731,
                -0.005861781071871519
            ],
            "name": "mesh376_coord_accessor",
            "type": "VEC3"
        },
        {
            "bufferView": 103,
            "componentType": 5126,
            "count": 10,
            "max": [
                1.0,
                0.0,
                0.0
            ],
            "min": [
                0.9174311757087708,
                -4.708250781540618e-31,
                -0.3978944718837738
            ],
            "name": "mesh376_norm_accessor",
            "type": "VEC3"
        },
        {
            "bufferView": 104,
            "componentType": 5125,
            "count": 24,
            "max": [
                9
            ],
            "min": [
                0
            ],
            "name": "mesh376_idx_accessor",
            "type": "SCALAR"
        },
        {
            "bufferView": 105,
            "componentType": 5126,
            "count": 10,
            "max": [
                0.1622961014509201,
                0.09372600167989731,
                -0.005861781071871519
            ],
            "min": [
                0.16122649610042572,
                -0.09372600167989731,
                -0.011016106233000755
            ],
            "name": "mesh377_coord_accessor",
            "type": "VEC3"
        },
        {
            "bufferView": 106,
            "componentType": 5126,
            "count": 10,
            "max": [
                1.0,
                -0.0,
                -1.606969414069822e-15
            ],
            "min": [
                0.9174311757087708,
                -4.708250781540618e-31,
                -0.3978944718837738
            ],
            "name": "mesh377_norm_accessor",
            "type": "VEC3"
        },
        {
            "bufferView": 107,
            "componentType": 5125,
            "count": 24,
            "max": [
                9
            ],
            "min": [
                0
            ],
            "name": "mesh377_idx_accessor",
            "type": "SCALAR"
        },
        {
            "bufferView": 108,
            "componentType": 5126,
            "count": 112,
            "max": [
                0.16351249814033508,
                -0.09372600167989731,
                0.20456638932228088
            ],
            "min": [
                -0.16351249814033508,
                -0.09372600167989731,
                -0.028796106576919556
            ],
            "name": "mesh378_coord_accessor",
            "type": "VEC3"
        },
        {
            "bufferView": 109,
            "componentType": 5126,
            "count": 112,
            "max": [
                -0.0,
                -1.0,
                1.1832913578315177e-30
            ],
            "min": [
                -0.0,
                -1.0,
                1.1832913578315177e-30
            ],
            "name": "mesh378_norm_accessor",
            "type": "VEC3"
        },
        {
            "bufferView": 110,
            "componentType": 5125,
            "count": 330,
            "max": [
                111
            ],
            "min": [
                0
            ],
            "name": "mesh378_idx_accessor",
            "type": "SCALAR"
        },
        {
            "bufferView": 111,
            "componentType": 5126,
            "count": 112,
            "max": [
                0.16351249814033508,
                0.09372600167989731,
                0.20456638932228088
            ],
            "min": [
                -0.16351249814033508,
                0.09372600167989731,
                -0.028796106576919556
            ],
            "name": "mesh379_coord_accessor",
            "type": "VEC3"
        },
        {
            "bufferView": 112,
            "componentType": 5126,
            "count": 112,
            "max": [
                0.0,
                1.0,
                -1.1832913578315177e-30
            ],
            "min": [
                0.0,
                1.0,
                -1.1832913578315177e-30
            ],
            "name": "mesh379_norm_accessor",
            "type": "VEC3"
        },
        {
            "bufferView": 113,
            "componentType": 5125,
            "count": 330,
            "max": [
                111
            ],
            "min": [
                0
            ],
            "name": "mesh379_idx_accessor",
            "type": "SCALAR"
        },
        {
            "bufferView": 114,
            "componentType": 5126,
            "count": 34,
            "max": [
                0.16122649610042572,
                0.09372600167989731,
                -0.011016106233000755
            ],
            "min": [
                0.16122649610042572,
                -0.09372600167989731,
                -0.03133610635995865
            ],
            "name": "mesh380_coord_accessor",
            "type": "VEC3"
        },
        {
            "bufferView": 115,
            "componentType": 5126,
            "count": 34,
            "max": [
                1.0,
                -0.0,
                -0.0
            ],
            "min": [
                1.0,
                -0.0,
                -0.0
            ],
            "name": "mesh380_norm_accessor",
            "type": "VEC3"
        },
        {
            "bufferView": 116,
            "componentType": 5125,
            "count": 96,
            "max": [
                33
            ],
            "min": [
                0
            ],
            "name": "mesh380_idx_accessor",
            "type": "SCALAR"
        },
        {
            "bufferView": 117,
            "componentType": 5126,
            "count": 34,
            "max": [
                0.15919449925422668,
                0.09372600167989731,
                -0.011016106233000755
            ],
            "min": [
                0.15919449925422668,
                -0.09372600167989731,
                -0.03133610635995865
            ],
            "name": "mesh381_coord_accessor",
            "type": "VEC3"
        },
        {
            "bufferView": 118,
            "componentType": 5126,
            "count": 34,
            "max": [
                -1.0,
                0.0,
                0.0
            ],
            "min": [
                -1.0,
                0.0,
                0.0
            ],
            "name": "mesh381_norm_accessor",
            "type": "VEC3"
        },
        {
            "bufferView": 119,
            "componentType": 5125,
            "count": 96,
            "max": [
                33
            ],
            "min": [
                0
            ],
            "name": "mesh381_idx_accessor",
            "type": "SCALAR"
        },
        {
            "bufferView": 120,
            "componentType": 5126,
            "count": 4,
            "max": [
                0.16122649610042572,
                0.09118600189685822,
                -0.03133610635995865
            ],
            "min": [
                0.15919449925422668,
                -0.09118600189685822,
                -0.03133610635995865
            ],
            "name": "mesh382_coord_accessor",
            "type": "VEC3"
        },
        {
            "bufferView": 121,
            "componentType": 5126,
            "count": 4,
            "max": [
                0.0,
                -1.1832913578315177e-30,
                -1.0
            ],
            "min": [
                0.0,
                -1.1832913578315177e-30,
                -1.0
            ],
            "name": "mesh382_norm_accessor",
            "type": "VEC3"
        },
        {
            "bufferView": 122,
            "componentType": 5125,
            "count": 6,
            "max": [
                3
            ],
            "min": [
                0
            ],
            "name": "mesh382_idx_accessor",
            "type": "SCALAR"
        },
        {
            "bufferView": 123,
            "componentType": 5126,
            "count": 32,
            "max": [
                0.16122649610042572,
                -0.09118600189685822,
                -0.028796106576919556
            ],
            "min": [
                0.15919449925422668,
                -0.09372600167989731,
                -0.03133610635995865
            ],
            "name": "mesh383_coord_accessor",
            "type": "VEC3"
        },
        {
            "bufferView": 124,
            "componentType": 5126,
            "count": 32,
            "max": [
                0.0,
                0.0,
                0.0
            ],
            "min": [
                0.0,
                -1.0,
                -1.0
            ],
            "name": "mesh383_norm_accessor",
            "type": "VEC3"
        },
        {
            "bufferView": 125,
            "componentType": 5125,
            "count": 90,
            "max": [
                31
            ],
            "min": [
                0
            ],
            "name": "mesh383_idx_accessor",
            "type": "SCALAR"
        },
        {
            "bufferView": 126,
            "componentType": 5126,
            "count": 32,
            "max": [
                0.16122649610042572,
                0.09372600167989731,
                -0.028796106576919556
            ],
            "min": [
                0.15919449925422668,
                0.09118600189685822,
                -0.03133610635995865
            ],
            "name": "mesh384_coord_accessor",
            "type": "VEC3"
        },
        {
            "bufferView": 127,
            "componentType": 5126,
            "count": 32,
            "max": [
                0.0,
                1.0,
                0.0
            ],
            "min": [
                0.0,
                0.0,
                -1.0
            ],
            "name": "mesh384_norm_accessor",
            "type": "VEC3"
        },
        {
            "bufferView": 128,
            "componentType": 5125,
            "count": 90,
            "max": [
                31
            ],
            "min": [
                0
            ],
            "name": "mesh384_idx_accessor",
            "type": "SCALAR"
        }
    ],
    "asset": {
        "generator": "ONSHAPE BY PTC INC, 1.215",
        "version": "2.0"
    },
    "bufferViews": [
        {
            "buffer": 0,
            "byteLength": 48,
            "name": "mesh342_coord_bufferView",
            "target": 34962
        },
        {
            "buffer": 0,
            "byteLength": 48,
            "byteOffset": 48,
            "name": "mesh342_norm_bufferView",
            "target": 34962
        },
        {
            "buffer": 0,
            "byteLength": 24,
            "byteOffset": 96,
            "name": "mesh342_idx_bufferView",
            "target": 34963
        },
        {
            "buffer": 0,
            "byteLength": 48,
            "byteOffset": 120,
            "name": "mesh343_coord_bufferView",
            "target": 34962
        },
        {
            "buffer": 0,
            "byteLength": 48,
            "byteOffset": 168,
            "name": "mesh343_norm_bufferView",
            "target": 34962
        },
        {
            "buffer": 0,
            "byteLength": 24,
            "byteOffset": 216,
            "name": "mesh343_idx_bufferView",
            "target": 34963
        },
        {
            "buffer": 0,
            "byteLength": 48,
            "byteOffset": 240,
            "name": "mesh344_coord_bufferView",
            "target": 34962
        },
        {
            "buffer": 0,
            "byteLength": 48,
            "byteOffset": 288,
            "name": "mesh344_norm_bufferView",
            "target": 34962
        },
        {
            "buffer": 0,
            "byteLength": 24,
            "byteOffset": 336,
            "name": "mesh344_idx_bufferView",
            "target": 34963
        },
        {
            "buffer": 0,
            "byteLength": 48,
            "byteOffset": 360,
            "name": "mesh345_coord_bufferView",
            "target": 34962
        },
        {
            "buffer": 0,
            "byteLength": 48,
            "byteOffset": 408,
            "name": "mesh345_norm_bufferView",
            "target": 34962
        },
        {
            "buffer": 0,
            "byteLength": 24,
            "byteOffset": 456,
            "name": "mesh345_idx_bufferView",
            "target": 34963
        },
        {
            "buffer": 0,
            "byteLength": 48,
            "byteOffset": 480,
            "name": "mesh346_coord_bufferView",
            "target": 34962
        },
        {
            "buffer": 0,
            "byteLength": 48,
            "byteOffset": 528,
            "name": "mesh346_norm_bufferView",
            "target": 34962
        },
        {
            "buffer": 0,
            "byteLength": 24,
            "byteOffset": 576,
            "name": "mesh346_idx_bufferView",
            "target": 34963
        },
        {
            "buffer": 0,
            "byteLength": 96,
            "byteOffset": 600,
            "name": "mesh347_coord_bufferView",
            "target": 34962
        },
        {
            "buffer": 0,
            "byteLength": 96,
            "byteOffset": 696,
            "name": "mesh347_norm_bufferView",
            "target": 34962
        },
        {
            "buffer": 0,
            "byteLength": 96,
            "byteOffset": 792,
            "name": "mesh347_idx_bufferView",
            "target": 34963
        },
        {
            "buffer": 0,
            "byteLength": 216,
            "byteOffset": 888,
            "name": "mesh348_coord_bufferView",
            "target": 34962
        },
        {
            "buffer": 0,
            "byteLength": 216,
            "byteOffset": 1104,
            "name": "mesh348_norm_bufferView",
            "target": 34962
        },
        {
            "buffer": 0,
            "byteLength": 192,
            "byteOffset": 1320,
            "name": "mesh348_idx_bufferView",
            "target": 34963
        },
        {
            "buffer": 0,
            "byteLength": 48,
            "byteOffset": 1512,
            "name": "mesh349_coord_bufferView",
            "target": 34962
        },
        {
            "buffer": 0,
            "byteLength": 48,
            "byteOffset": 1560,
            "name": "mesh349_norm_bufferView",
            "target": 34962
        },
        {
            "buffer": 0,
            "byteLength": 24,
            "byteOffset": 1608,
            "name": "mesh349_idx_bufferView",
            "target": 34963
        },
        {
            "buffer": 0,
            "byteLength": 216,
            "byteOffset": 1632,
            "name": "mesh350_coord_bufferView",
            "target": 34962
        },
        {
            "buffer": 0,
            "byteLength": 216,
            "byteOffset": 1848,
            "name": "mesh350_norm_bufferView",
            "target": 34962
        },
        {
            "buffer": 0,
            "byteLength": 192,
            "byteOffset": 2064,
            "name": "mesh350_idx_bufferView",
            "target": 34963
        },
        {
            "buffer": 0,
            "byteLength": 48,
            "byteOffset": 2256,
            "name": "mesh351_coord_bufferView",
            "target": 34962
        },
        {
            "buffer": 0,
            "byteLength": 48,
            "byteOffset": 2304,
            "name": "mesh351_norm_bufferView",
            "target": 34962
        },
        {
            "buffer": 0,
            "byteLength": 24,
            "byteOffset": 2352,
            "name": "mesh351_idx_bufferView",
            "target": 34963
        },
        {
            "buffer": 0,
            "byteLength": 120,
            "byteOffset": 2376,
            "name": "mesh352_coord_bufferView",
            "target": 34962
        },
        {
            "buffer": 0,
            "byteLength": 120,
            "byteOffset": 2496,
            "name": "mesh352_norm_bufferView",
            "target": 34962
        },
        {
            "buffer": 0,
            "byteLength": 96,
            "byteOffset": 2616,
            "name": "mesh352_idx_bufferView",
            "target": 34963
        },
        {
            "buffer": 0,
            "byteLength": 120,
            "byteOffset": 2712,
            "name": "mesh353_coord_bufferView",
            "target": 34962
        },
        {
            "buffer": 0,
            "byteLength": 120,
            "byteOffset": 2832,
            "name": "mesh353_norm_bufferView",
            "target": 34962
        },
        {
            "buffer": 0,
            "byteLength": 96,
            "byteOffset": 2952,
            "name": "mesh353_idx_bufferView",
            "target": 34963
        },
        {
            "buffer": 0,
            "byteLength": 216,
            "byteOffset": 3048,
            "name": "mesh354_coord_bufferView",
            "target": 34962
        },
        {
            "buffer": 0,
            "byteLength": 216,
            "byteOffset": 3264,
            "name": "mesh354_norm_bufferView",
            "target": 34962
        },
        {
            "buffer": 0,
            "byteLength": 192,
            "byteOffset": 3480,
            "name": "mesh354_idx_bufferView",
            "target": 34963
        },
        {
            "buffer": 0,
            "byteLength": 48,
            "byteOffset": 3672,
            "name": "mesh355_coord_bufferView",
            "target": 34962
        },
        {
            "buffer": 0,
            "byteLength": 48,
            "byteOffset": 3720,
            "name": "mesh355_norm_bufferView",
            "target": 34962
        },
        {
            "buffer": 0,
            "byteLength": 24,
            "byteOffset": 3768,
            "name": "mesh355_idx_bufferView",
            "target": 34963
        },
        {
            "buffer": 0,
            "byteLength": 216,
            "byteOffset": 3792,
            "name": "mesh356_coord_bufferView",
            "target": 34962
        },
        {
            "buffer": 0,
            "byteLength": 216,
            "byteOffset": 4008,
            "name": "mesh356_norm_bufferView",
            "target": 34962
        },
        {
            "buffer": 0,
            "byteLength": 192,
            "byteOffset": 4224,
            "name": "mesh356_idx_bufferView",
            "target": 34963
        },
        {
            "buffer": 0,
            "byteLength": 48,
            "byteOffset": 4416,
            "name": "mesh357_coord_bufferView",
            "target": 34962
        },
        {
            "buffer": 0,
            "byteLength": 48,
            "byteOffset": 4464,
            "name": "mesh357_norm_bufferView",
            "target": 34962
        },
        {
            "buffer": 0,
            "byteLength": 24,
            "byteOffset": 4512,
            "name": "mesh357_idx_bufferView",
            "target": 34963
        },
        {
            "buffer": 0,
            "byteLength": 120,
            "byteOffset": 4536,
            "name": "mesh358_coord_bufferView",
            "target": 34962
        },
        {
            "buffer": 0,
            "byteLength": 120,
            "byteOffset": 4656,
            "name": "mesh358_norm_bufferView",
            "target": 34962
        },
        {
            "buffer": 0,
            "byteLength": 96,
            "byteOffset": 4776,
            "name": "mesh358_idx_bufferView",
            "target": 34963
        },
        {
            "buffer": 0,
            "byteLength": 120,
            "byteOffset": 4872,
            "name": "mesh359_coord_bufferView",
            "target": 34962
        },
        {
            "buffer": 0,
            "byteLength": 120,
            "byteOffset": 4992,
            "name": "mesh359_norm_bufferView",
            "target": 34962
        },
        {
            "buffer": 0,
            "byteLength": 96,
            "byteOffset": 5112,
            "name": "mesh359_idx_bufferView",
            "target": 34963
        },
        {
            "buffer": 0,
            "byteLength": 408,
            "byteOffset": 5208,
            "name": "mesh360_coord_bufferView",
            "target": 34962
        },
        {
            "buffer": 0,
            "byteLength": 408,
            "byteOffset": 5616,
            "name": "mesh360_norm_bufferView",
            "target": 34962
        },
        {
            "buffer": 0,
            "byteLength": 384,
            "byteOffset": 6024,
            "name": "mesh360_idx_bufferView",
            "target": 34963
        },
        {
            "buffer": 0,
            "byteLength": 48,
            "byteOffset": 6408,
            "name": "mesh361_coord_bufferView",
            "target": 34962
        },
        {
            "buffer": 0,
            "byteLength": 48,
            "byteOffset": 6456,
            "name": "mesh361_norm_bufferView",
            "target": 34962
        },
        {
            "buffer": 0,
            "byteLength": 24,
            "byteOffset": 6504,
            "name": "mesh361_idx_bufferView",
            "target": 34963
        },
        {
            "buffer": 0,
            "byteLength": 384,
            "byteOffset": 6528,
            "name": "mesh362_coord_bufferView",
            "target": 34962
        },
        {
            "buffer": 0,
            "byteLength": 384,
            "byteOffset": 6912,
            "name": "mesh362_norm_bufferView",
            "target": 34962
        },
        {
            "buffer": 0,
            "byteLength": 360,
            "byteOffset": 7296,
            "name": "mesh362_idx_bufferView",
            "target": 34963
        },
        {
            "buffer": 0,
            "byteLength": 384,
            "byteOffset": 7656,
            "name": "mesh363_coord_bufferView",
            "target": 34962
        },
        {
            "buffer": 0,
            "byteLength": 384,
            "byteOffset": 8040,
            "name": "mesh363_norm_bufferView",
            "target": 34962
        },
        {
            "buffer": 0,
            "byteLength": 360,
            "byteOffset": 8424,
            "name": "mesh363_idx_bufferView",
            "target": 34963
        },
        {
            "buffer": 0,
            "byteLength": 408,
            "byteOffset": 8784,
            "name": "mesh364_coord_bufferView",
            "target": 34962
        },
        {
            "buffer": 0,
            "byteLength": 408,
            "byteOffset": 9192,
            "name": "mesh364_norm_bufferView",
            "target": 34962
        },
        {
            "buffer": 0,
            "byteLength": 384,
            "byteOffset": 9600,
            "name": "mesh364_idx_bufferView",
            "target": 34963
        },
        {
            "buffer": 0,
            "byteLength": 120,
            "byteOffset": 9984,
            "name": "mesh365_coord_bufferView",
            "target": 34962
        },
        {
            "buffer": 0,
            "byteLength": 120,
            "byteOffset": 10104,
            "name": "mesh365_norm_bufferView",
            "target": 34962
        },
        {
            "buffer": 0,
            "byteLength": 96,
            "byteOffset": 10224,
            "name": "mesh365_idx_bufferView",
            "target": 34963
        },
        {
            "buffer": 0,
            "byteLength": 120,
            "byteOffset": 10320,
            "name": "mesh366_coord_bufferView",
            "target": 34962
        },
        {
            "buffer": 0,
            "byteLength": 120,
            "byteOffset": 10440,
            "name": "mesh366_norm_bufferView",
            "target": 34962
        },
        {
            "buffer": 0,
            "byteLength": 96,
            "byteOffset": 10560,
            "name": "mesh366_idx_bufferView",
            "target": 34963
        },
        {
            "buffer": 0,
            "byteLength": 48,
            "byteOffset": 10656,
            "name": "mesh367_coord_bufferView",
            "target": 34962
        },
        {
            "buffer": 0,
            "byteLength": 48,
            "byteOffset": 10704,
            "name": "mesh367_norm_bufferView",
            "target": 34962
        },
        {
            "buffer": 0,
            "byteLength": 24,
            "byteOffset": 10752,
            "name": "mesh367_idx_bufferView",
            "target": 34963
        },
        {
            "buffer": 0,
            "byteLength": 216,
            "byteOffset": 10776,
            "name": "mesh368_coord_bufferView",
            "target": 34962
        },
        {
            "buffer": 0,
            "byteLength": 216,
            "byteOffset": 10992,
            "name": "mesh368_norm_bufferView",
            "target": 34962
        },
        {
            "buffer": 0,
            "byteLength": 192,
            "byteOffset": 11208,
            "name": "mesh368_idx_bufferView",
            "target": 34963
        },
        {
            "buffer": 0,
            "byteLength": 48,
            "byteOffset": 11400,
            "name": "mesh369_coord_bufferView",
            "target": 34962
        },
        {
            "buffer": 0,
            "byteLength": 48,
            "byteOffset": 11448,
            "name": "mesh369_norm_bufferView",
            "target": 34962
        },
        {
            "buffer": 0,
            "byteLength": 24,
            "byteOffset": 11496,
            "name": "mesh369_idx_bufferView",
            "target": 34963
        },
        {
            "buffer": 0,
            "byteLength": 216,
            "byteOffset": 11520,
            "name": "mesh370_coord_bufferView",
            "target": 34962
        },
        {
            "buffer": 0,
            "byteLength": 216,
            "byteOffset": 11736,
            "name": "mesh370_norm_bufferView",
            "target": 34962
        },
        {
            "buffer": 0,
            "byteLength": 192,
            "byteOffset": 11952,
            "name": "mesh370_idx_bufferView",
            "target": 34963
        },
        {
            "buffer": 0,
            "byteLength": 48,
            "byteOffset": 12144,
            "name": "mesh371_coord_bufferView",
            "target": 34962
        },
        {
            "buffer": 0,
            "byteLength": 48,
            "byteOffset": 12192,
            "name": "mesh371_norm_bufferView",
            "target": 34962
        },
        {
            "buffer": 0,
            "byteLength": 24,
            "byteOffset": 12240,
            "name": "mesh371_idx_bufferView",
            "target": 34963
        },
        {
            "buffer": 0,
            "byteLength": 216,
            "byteOffset": 12264,
            "name": "mesh372_coord_bufferView",
            "target": 34962
        },
        {
            "buffer": 0,
            "byteLength": 216,
            "byteOffset": 12480,
            "name": "mesh372_norm_bufferView",
            "target": 34962
        },
        {
            "buffer": 0,
            "byteLength": 192,
            "byteOffset": 12696,
            "name": "mesh372_idx_bufferView",
            "target": 34963
        },
        {
            "buffer": 0,
            "byteLength": 48,
            "byteOffset": 12888,
            "name": "mesh373_coord_bufferView",
            "target": 34962
        },
        {
            "buffer": 0,
            "byteLength": 48,
            "byteOffset": 12936,
            "name": "mesh373_norm_bufferView",
            "target": 34962
        },
        {
            "buffer": 0,
            "byteLength": 24,
            "byteOffset": 12984,
            "name": "mesh373_idx_bufferView",
            "target": 34963
        },
        {
            "buffer": 0,
            "byteLength": 216,
            "byteOffset": 13008,
            "name": "mesh374_coord_bufferView",
            "target": 34962
        },
        {
            "buffer": 0,
            "byteLength": 216,
            "byteOffset": 13224,
            "name": "mesh374_norm_bufferView",
            "target": 34962
        },
        {
            "buffer": 0,
            "byteLength": 192,
            "byteOffset": 13440,
            "name": "mesh374_idx_bufferView",
            "target": 34963
        },
        {
            "buffer": 0,
            "byteLength": 48,
            "byteOffset": 13632,
            "name": "mesh375_coord_bufferView",
            "target": 34962
        },
        {
            "buffer": 0,
            "byteLength": 48,
            "byteOffset": 13680,
            "name": "mesh375_norm_bufferView",
            "target": 34962
        },
        {
            "buffer": 0,
            "byteLength": 24,
            "byteOffset": 13728,
            "name": "mesh375_idx_bufferView",
            "target": 34963
        },
        {
            "buffer": 0,
            "byteLength": 120,
            "byteOffset": 13752,
            "name": "mesh376_coord_bufferView",
            "target": 34962
        },
        {
            "buffer": 0,
            "byteLength": 120,
            "byteOffset": 13872,
            "name": "mesh376_norm_bufferView",
            "target": 34962
        },
        {
            "buffer": 0,
            "byteLength": 96,
            "byteOffset": 13992,
            "name": "mesh376_idx_bufferView",
            "target": 34963
        },
        {
            "buffer": 0,
            "byteLength": 120,
            "byteOffset": 14088,
            "name": "mesh377_coord_bufferView",
            "target": 34962
        },
        {
            "buffer": 0,
            "byteLength": 120,
            "byteOffset": 14208,
            "name": "mesh377_norm_bufferView",
            "target": 34962
        },
        {
            "buffer": 0,
            "byteLength": 96,
            "byteOffset": 14328,
            "name": "mesh377_idx_bufferView",
            "target": 34963
        },
        {
            "buffer": 0,
            "byteLength": 1344,
            "byteOffset": 14424,
            "name": "mesh378_coord_bufferView",
            "target": 34962
        },
        {
            "buffer": 0,
            "byteLength": 1344,
            "byteOffset": 15768,
            "name": "mesh378_norm_bufferView",
            "target": 34962
        },
        {
            "buffer": 0,
            "byteLength": 1320,
            "byteOffset": 17112,
            "name": "mesh378_idx_bufferView",
            "target": 34963
        },
        {
            "buffer": 0,
            "byteLength": 1344,
            "byteOffset": 18432,
            "name": "mesh379_coord_bufferView",
            "target": 34962
        },
        {
            "buffer": 0,
            "byteLength": 1344,
            "byteOffset": 19776,
            "name": "mesh379_norm_bufferView",
            "target": 34962
        },
        {
            "buffer": 0,
            "byteLength": 1320,
            "byteOffset": 21120,
            "name": "mesh379_idx_bufferView",
            "target": 34963
        },
        {
            "buffer": 0,
            "byteLength": 408,
            "byteOffset": 22440,
            "name": "mesh380_coord_bufferView",
            "target": 34962
        },
        {
            "buffer": 0,
            "byteLength": 408,
            "byteOffset": 22848,
            "name": "mesh380_norm_bufferView",
            "target": 34962
        },
        {
            "buffer": 0,
            "byteLength": 384,
            "byteOffset": 23256,
            "name": "mesh380_idx_bufferView",
            "target": 34963
        },
        {
            "buffer": 0,
            "byteLength": 408,
            "byteOffset": 23640,
            "name": "mesh381_coord_bufferView",
            "target": 34962
        },
        {
            "buffer": 0,
            "byteLength": 408,
            "byteOffset": 24048,
            "name": "mesh381_norm_bufferView",
            "target": 34962
        },
        {
            "buffer": 0,
            "byteLength": 384,
            "byteOffset": 24456,
            "name": "mesh381_idx_bufferView",
            "target": 34963
        },
        {
            "buffer": 0,
            "byteLength": 48,
            "byteOffset": 24840,
            "name": "mesh382_coord_bufferView",
            "target": 34962
        },
        {
            "buffer": 0,
            "byteLength": 48,
            "byteOffset": 24888,
            "name": "mesh382_norm_bufferView",
            "target": 34962
        },
        {
            "buffer": 0,
            "byteLength": 24,
            "byteOffset": 24936,
            "name": "mesh382_idx_bufferView",
            "target": 34963
        },
        {
            "buffer": 0,
            "byteLength": 384,
            "byteOffset": 24960,
            "name": "mesh383_coord_bufferView",
            "target": 34962
        },
        {
            "buffer": 0,
            "byteLength": 384,
            "byteOffset": 25344,
            "name": "mesh383_norm_bufferView",
            "target": 34962
        },
        {
            "buffer": 0,
            "byteLength": 360,
            "byteOffset": 25728,
            "name": "mesh383_idx_bufferView",
            "target": 34963
        },
        {
            "buffer": 0,
            "byteLength": 384,
            "byteOffset": 26088,
            "name": "mesh384_coord_bufferView",
            "target": 34962
        },
        {
            "buffer": 0,
            "byteLength": 384,
            "byteOffset": 26472,
            "name": "mesh384_norm_bufferView",
            "target": 34962
        },
        {
            "buffer": 0,
            "byteLength": 360,
            "byteOffset": 26856,
            "name": "mesh384_idx_bufferView",
            "target": 34963
        }
    ],
    "buffers": [
        {
            "byteLength": 27216,
            "name": "Total_buffer",
            "uri": "data:application/octet-stream;base64,"
        }
    ],
    "extensionsUsed": [
        "PTC_onshape_metadata"
    ],
    "materials": [
        {
            "doubleSided": true,
            "name": "0.980392_0.713725_0.003922_0.000000_0.000000",
            "pbrMetallicRoughness": {
                "baseColorFactor": [
                    0.9803921580314636,
                    0.7137255072593689,
                    0.003921568859368563,
                    1.0
                ],
                "metallicFactor": 0.0
            }
        },
        {
            "doubleSided": true,
            "name": "0.972549_0.529412_0.003922_0.000000_0.000000",
            "pbrMetallicRoughness": {
                "baseColorFactor": [
                    0.9725490212440491,
                    0.529411792755127,
                    0.003921568859368563,
                    1.0
                ],
                "metallicFactor": 0.0
            }
        },
        {
            "doubleSided": true,
            "name": "0.768627_0.886275_0.952941_0.000000_0.000000",
            "pbrMetallicRoughness": {
                "baseColorFactor": [
                    0.7686274647712708,
                    0.886274516582489,
                    0.9529411792755127,
                    1.0
                ],
                "metallicFactor": 0.0
            }
        },
        {
            "doubleSided": true,
            "name": "0.647059_0.647059_0.647059_0.000000_0.000000",
            "pbrMetallicRoughness": {
                "baseColorFactor": [
                    0.6470588445663452,
                    0.6470588445663452,
                    0.6470588445663452,
                    1.0
                ],
                "metallicFactor": 0.0
            }
        },
        {
            "doubleSided": true,
            "name": "0.231373_0.380392_0.705882_0.000000_0.000000",
            "pbrMetallicRoughness": {
                "baseColorFactor": [
                    0.23137255012989044,
                    0.3803921639919281,
                    0.7058823704719543,
                    1.0
                ],
                "metallicFactor": 0.0
            }
        },
        {
            "doubleSided": true,
            "name": "0.615686_0.811765_0.929412_0.000000_0.000000",
            "pbrMetallicRoughness": {
                "baseColorFactor": [
                    0.615686297416687,
                    0.8117647171020508,
                    0.929411768913269,
                    1.0
                ],
                "metallicFactor": 0.0
            }
        },
        {
            "doubleSided": true,
            "name": "0.917647_0.917647_0.917647_0.000000_0.000000",
            "pbrMetallicRoughness": {
                "baseColorFactor": [
                    0.9176470637321472,
                    0.9176470637321472,
                    0.9176470637321472,
                    1.0
                ],
                "metallicFactor": 0.0
            }
        },
        {
            "doubleSided": true,
            "name": "0.498039_0.498039_0.498039_0.000000_0.000000",
            "pbrMetallicRoughness": {
                "baseColorFactor": [
                    0.49803921580314636,
                    0.49803921580314636,
                    0.49803921580314636,
                    1.0
                ],
                "metallicFactor": 0.0
            }
        }
    ],
    "meshes": [
        {
            "name": "mesh342_mesh",
            "primitives": [
                {
                    "attributes": {
                        "NORMAL": 1,
                        "POSITION": 0
                    },
                    "indices": 2,
                    "material": 6
                }
            ]
        },
        {
            "name": "mesh343_mesh",
            "primitives": [
                {
                    "attributes": {
                        "NORMAL": 4,
                        "POSITION": 3
                    },
                    "indices": 5,
                    "material": 6
                }
            ]
        },
        {
            "name": "mesh344_mesh",
            "primitives": [
                {
                    "attributes": {
                        "NORMAL": 7,
                        "POSITION": 6
                    },
                    "indices": 8,
                    "material": 6
                }
            ]
        },
        {
            "name": "mesh345_mesh",
            "primitives": [
                {
                    "attributes": {
                        "NORMAL": 10,
                        "POSITION": 9
                    },
                    "indices": 11,
                    "material": 6
                }
            ]
        },
        {
            "name": "mesh346_mesh",
            "primitives": [
                {
                    "attributes": {
                        "NORMAL": 13,
                        "POSITION": 12
                    },
                    "indices": 14,
                    "material": 6
                }
            ]
        },
        {
            "name": "mesh347_mesh",
            "primitives": [
                {
                    "attributes": {
                        "NORMAL": 16,
                        "POSITION": 15
                    },
                    "indices": 17,
                    "material": 6
                }
            ]
        },
        {
            "name": "mesh348_mesh",
            "primitives": [
                {
                    "attributes": {
                        "NORMAL": 19,
                        "POSITION": 18
                    },
                    "indices": 20,
                    "material": 6
                }
            ]
        },
        {
            "name": "mesh349_mesh",
            "primitives": [
                {
                    "attributes": {
                        "NORMAL": 22,
                        "POSITION": 21
                    },
                    "indices": 23,
                    "material": 6
                }
            ]
        },
        {
            "name": "mesh350_mesh",
            "primitives": [
                {
                    "attributes": {
                        "NORMAL": 25,
                        "POSITION": 24
                    },
                    "indices": 26,
                    "material": 6
                }
            ]
        },
        {
            "name": "mesh351_mesh",
            "primitives": [
                {
                    "attributes": {
                        "NORMAL": 28,
                        "POSITION": 27
                    },
                    "indices": 29,
                    "material": 6
                }
            ]
        },
        {
            "name": "mesh352_mesh",
            "primitives": [
                {
                    "attributes": {
                        "NORMAL": 31,
                        "POSITION": 30
                    },
                    "indices": 32,
                    "material": 6
                }
            ]
        },
        {
            "name": "mesh353_mesh",
            "primitives": [
                {
                    "attributes": {
                        "NORMAL": 34,
                        "POSITION": 33
                    },
                    "indices": 35,
                    "material": 6
                }
            ]
        },
        {
            "name": "mesh354_mesh",
            "primitives": [
                {
                    "attributes": {
                        "NORMAL": 37,
                        "POSITION": 36
                    },
                    "indices": 38,
                    "material": 6
                }
            ]
        },
        {
            "name": "mesh355_mesh",
            "primitives": [
                {
                    "attributes": {
                        "NORMAL": 40,
                        "POSITION": 39
                    },
                    "indices": 41,
                    "material": 6
                }
            ]
        },
        {
            "name": "mesh356_mesh",
            "primitives": [
                {
                    "attributes": {
                        "NORMAL": 43,
                        "POSITION": 42
                    },
                    "indices": 44,
                    "material": 6
                }
            ]
        },
        {
            "name": "mesh357_mesh",
            "primitives": [
                {
                    "attributes": {
                        "NORMAL": 46,
                        "POSITION": 45
                    },
                    "indices": 47,
                    "material": 6
                }
            ]
        },
        {
            "name": "mesh358_mesh",
            "primitives": [
                {
                    "attributes": {
                        "NORMAL": 49,
                        "POSITION": 48
                    },
                    "indices": 50,
                    "material": 6
                }
            ]
        },
        {
            "name": "mesh359_mesh",
            "primitives": [
                {
                    "attributes": {
                        "NORMAL": 52,
                        "POSITION": 51
                    },
                    "indices": 53,
                    "material": 6
                }
            ]
        },
        {
            "name": "mesh360_mesh",
            "primitives": [
                {
                    "attributes": {
                        "NORMAL": 55,
                        "POSITION": 54
                    },
                    "indices": 56,
                    "material": 6
                }
            ]
        },
        {
            "name": "mesh361_mesh",
            "primitives": [
                {
                    "attributes": {
                        "NORMAL": 58,
                        "POSITION": 57
                    },
                    "indices": 59,
                    "material": 6
                }
            ]
        },
        {
            "name": "mesh362_mesh",
            "primitives": [
                {
                    "attributes": {
                        "NORMAL": 61,
                        "POSITION": 60
                    },
                    "indices": 62,
                    "material": 6
                }
            ]
        },
        {
            "name": "mesh363_mesh",
            "primitives": [
                {
                    "attributes": {
                        "NORMAL": 64,
                        "POSITION": 63
                    },
                    "indices": 65,
                    "material": 6
                }
            ]
        },
        {
            "name": "mesh364_mesh",
            "primitives": [
                {
                    "attributes": {
                        "NORMAL": 67,
                        "POSITION": 66
                    },
                    "indices": 68,
                    "material": 6
                }
            ]
        },
        {
            "name": "mesh365_mesh",
            "primitives": [
                {
                    "attributes": {
                        "NORMAL": 70,
                        "POSITION": 69
                    },
                    "indices": 71,
                    "material": 6
                }
            ]
        },
        {
            "name": "mesh366_mesh",
            "primitives": [
                {
                    "attributes": {
                        "NORMAL": 73,
                        "POSITION": 72
                    },
                    "indices": 74,
                    "material": 6
                }
            ]
        },
        {
            "name": "mesh367_mesh",
            "primitives": [
                {
                    "attributes": {
                        "NORMAL": 76,
                        "POSITION": 75
                    },
                    "indices": 77,
                    "material": 6
                }
            ]
        },
        {
            "name": "mesh368_mesh",
            "primitives": [
                {
                    "attributes": {
                        "NORMAL": 79,
                        "POSITION": 78
                    },
                    "indices": 80,
                    "material": 6
                }
            ]
        },
        {
            "name": "mesh369_mesh",
            "primitives": [
                {
                    "attributes": {
                        "NORMAL": 82,
                        "POSITION": 81
                    },
                    "indices": 83,
                    "material": 6
                }
            ]
        },
        {
            "name": "mesh370_mesh",
            "primitives": [
                {
                    "attributes": {
                        "NORMAL": 85,
                        "POSITION": 84
                    },
                    "indices": 86,
                    "material": 6
                }
            ]
        },
        {
            "name": "mesh371_mesh",
            "primitives": [
                {
                    "attributes": {
                        "NORMAL": 88,
                        "POSITION": 87
                    },
                    "indices": 89,
                    "material": 6
                }
            ]
        },
        {
            "name": "mesh372_mesh",
            "primitives": [
                {
                    "attributes": {
                        "NORMAL": 91,
                        "POSITION": 90
                    },
                    "indices": 92,
                    "material": 6
                }
            ]
        },
        {
            "name": "mesh373_mesh",
            "primitives": [
                {
                    "attributes": {
                        "NORMAL": 94,
                        "POSITION": 93
                    },
                    "indices": 95,
                    "material": 6
                }
            ]
        },
        {
            "name": "mesh374_mesh",
            "primitives": [
                {
                    "attributes": {
                        "NORMAL": 97,
                        "POSITION": 96
                    },
                    "indices": 98,
                    "material": 6
                }
            ]
        },
        {
            "name": "mesh375_mesh",
            "primitives": [
                {
                    "attributes": {
                        "NORMAL": 100,
                        "POSITION": 99
                    },
                    "indices": 101,
                    "material": 6
                }
            ]
        },
        {
            "name": "mesh376_mesh",
            "primitives": [
                {
                    "attributes": {
                        "NORMAL": 103,
                        "POSITION": 102
                    },
                    "indices": 104,
                    "material": 6
                }
            ]
        },
        {
            "name": "mesh377_mesh",
            "primitives": [
                {
                    "attributes": {
                        "NORMAL": 106,
                        "POSITION": 105
                    },
                    "indices": 107,
                    "material": 6
                }
            ]
        },
        {
            "name": "mesh378_mesh",
            "primitives": [
                {
                    "attributes": {
                        "NORMAL": 109,
                        "POSITION": 108
                    },
                    "indices": 110,
                    "material": 6
                }
            ]
        },
        {
            "name": "mesh379_mesh",
            "primitives": [
                {
                    "attributes": {
                        "NORMAL": 112,
                        "POSITION": 111
                    },
                    "indices": 113,
                    "material": 6
                }
            ]
        },
        {
            "name": "mesh380_mesh",
            "primitives": [
                {
                    "attributes": {
                        "NORMAL": 115,
                        "POSITION": 114
                    },
                    "indices": 116,
                    "material": 6
                }
            ]
        },
        {
            "name": "mesh381_mesh",
            "primitives": [
                {
                    "attributes": {
                        "NORMAL": 118,
                        "POSITION": 117
                    },
                    "indices": 119,
                    "material": 6
                }
            ]
        },
        {
            "name": "mesh382_mesh",
            "primitives": [
                {
                    "attributes": {
                        "NORMAL": 121,
                        "POSITION": 120
                    },
                    "indices": 122,
                    "material": 6
                }
            ]
        },
        {
            "name": "mesh383_mesh",
            "primitives": [
                {
                    "attributes": {
                        "NORMAL": 124,
                        "POSITION": 123
                    },
                    "indices": 125,
                    "material": 6
                }
            ]
        },
        {
            "name": "mesh384_mesh",
            "primitives": [
                {
                    "attributes": {
                        "NORMAL": 127,
                        "POSITION": 126
                    },
                    "indices": 128,
                    "material": 6
                }
            ]
        }
    ],
    "nodes": [
        {
            "mesh": 0,
            "name": "mesh342"
        },
        {
            "mesh": 1,
            "name": "mesh343"
        },
        {
            "mesh": 2,
            "name": "mesh344"
        },
        {
            "mesh": 3,
            "name": "mesh345"
        },
        {
            "mesh": 4,
            "name": "mesh346"
        },
        {
            "mesh": 5,
            "name": "mesh347"
        },
        {
            "mesh": 6,
            "name": "mesh348"
        },
        {
            "mesh": 7,
            "name": "mesh349"
        },
        {
            "mesh": 8,
            "name": "mesh350"
        },
        {
            "mesh": 9,
            "name": "mesh351"
        },
        {
            "mesh": 10,
            "name": "mesh352"
        },
        {
            "mesh": 11,
            "name": "mesh353"
        },
        {
            "mesh": 12,
            "name": "mesh354"
        },
        {
            "mesh": 13,
            "name": "mesh355"
        },
        {
            "mesh": 14,
            "name": "mesh356"
        },
        {
            "mesh": 15,
            "name": "mesh357"
        },
        {
            "mesh": 16,
            "name": "mesh358"
        },
        {
            "mesh": 17,
            "name": "mesh359"
        },
        {
            "mesh": 18,
            "name": "mesh360"
        },
        {
            "mesh": 19,
            "name": "mesh361"
        },
        {
            "mesh": 20,
            "name": "mesh362"
        },
        {
            "mesh": 21,
            "name": "mesh363"
        },
        {
            "mesh": 22,
            "name": "mesh364"
        },
        {
            "mesh": 23,
            "name": "mesh365"
        },
        {
            "mesh": 24,
            "name": "mesh366"
        },
        {
            "mesh": 25,
            "name": "mesh367"
        },
        {
            "mesh": 26,
            "name": "mesh368"
        },
        {
            "mesh": 27,
            "name": "mesh369"
        },
        {
            "mesh": 28,
            "name": "mesh370"
        },
        {
            "mesh": 29,
            "name": "mesh371"
        },
        {
            "mesh": 30,
            "name": "mesh372"
        },
        {
            "mesh": 31,
            "name": "mesh373"
        },
        {
            "mesh": 32,
            "name": "mesh374"
        },
        {
            "mesh": 33,
            "name": "mesh375"
        },
        {
            "mesh": 34,
            "name": "mesh376"
        },
        {
            "mesh": 35,
            "name": "mesh377"
        },
        {
            "mesh": 36,
            "name": "mesh378"
        },
        {
            "mesh": 37,
            "name": "mesh379"
        },
        {
            "mesh": 38,
            "name": "mesh380"
        },
        {
            "mesh": 39,
            "name": "mesh381"
        },
        {
            "mesh": 40,
            "name": "mesh382"
        },
        {
            "mesh": 41,
            "name": "mesh383"
        },
        {
            "mesh": 42,
            "name": "mesh384"
        }
    ],
    "scene": 0,
    "scenes": [
        {
            "name": "Root",
            "nodes": [
                0,
                1,
                2,
                3,
                4,
                5,
                6,
                7,
                8,
                9,
                10,
                11,
                12,
                13,
                14,
                15,
                16,
                17,
                18,
                19,
                20,
                21,
                22,
                23,
                24,
                25,
                26,
                27,
                28,
                29,
                30,
                31,
                32,
                33,
                34,
                35,
                36,
                37,
                38,
                39,
                40,
                41,
                42
            ]
        }
    ]
}