{
    "accessors": [
        {
            "bufferView": 0,
            "componentType": 5126,
            "count": 116,
            "max": [
                -0.08572500199079514,
                0.023668143898248672,
                0.2421296238899231
            ],
            "min": [
                -0.09207499772310257,
                0.017327455803751945,
                0.24009762704372406
            ],
            "name": "mesh289_coord_accessor",
            "type": "VEC3"
        },
        {
            "bufferView": 1,
            "componentType": 5126,
            "count": 116,
            "max": [
                1.0,
                0.9985334277153015,
                1.4969029618185032e-16
            ],
            "min": [
                -1.0,
                -0.9985334277153015,
                -1.4881280975316427e-16
            ],
            "name": "mesh289_norm_accessor",
            "type": "VEC3"
        },
        {
            "bufferView": 2,
            "componentType": 5125,
            "count": 348,
            "max": [
                115
            ],
            "min": [
                0
            ],
            "name": "mesh289_idx_accessor",
            "type": "SCALAR"
        },
        {
            "bufferView": 3,
            "componentType": 5126,
            "count": 126,
            "max": [
                0.09271000325679779,
                0.09372600167989731,
                0.24009762704372406
            ],
            "min": [
                -0.09271000325679779,
                -0.09372600167989731,
                0.24009762704372406
            ],
            "name": "mesh290_coord_accessor",
            "type": "VEC3"
        },
        {
            "bufferView": 4,
            "componentType": 5126,
            "count": 126,
            "max": [
                -1.4969029618185032e-16,
                0.0,
                -1.0
            ],
            "min": [
                -1.4969029618185032e-16,
                0.0,
                -1.0
            ],
            "name": "mesh290_norm_accessor",
            "type": "VEC3"
        },
        {
            "bufferView": 5,
            "componentType": 5125,
            "count": 384,
            "max": [
                125
            ],
            "min": [
                0
            ],
            "name": "mesh290_idx_accessor",
            "type": "SCALAR"
        },
        {
            "bufferView": 6,
            "componentType": 5126,
            "count": 32,
            "max": [
                -0.07620000094175339,
                0.012242799624800682,
                0.2421296238899231
            ],
            "min": [
                -0.08254999667406082,
                0.0058928001672029495,
                0.24009762704372406
            ],
            "name": "mesh291_coord_accessor",
            "type": "VEC3"
        },
        {
            "bufferView": 7,
            "componentType": 5126,
            "count": 32,
            "max": [
                1.0,
                1.3659240072533046e-16,
                2.9688650385051036e-16
            ],
            "min": [
                -1.1287305251160736e-14,
                -1.0,
                -0.0
            ],
            "name": "mesh291_norm_accessor",
            "type": "VEC3"
        },
        {
            "bufferView": 8,
            "componentType": 5125,
            "count": 90,
            "max": [
                31
            ],
            "min": [
                0
            ],
            "name": "mesh291_idx_accessor",
            "type": "SCALAR"
        },
        {
            "bufferView": 9,
            "componentType": 5126,
            "count": 4,
            "max": [
                -0.08254999667406082,
                0.0058928001672029495,
                0.2421296238899231
            ],
            "min": [
                -0.08254999667406082,
                -0.049987200647592545,
                0.24009762704372406
            ],
            "name": "mesh292_coord_accessor",
            "type": "VEC3"
        },
        {
            "bufferView": 10,
            "componentType": 5126,
            "count": 4,
            "max": [
                1.0,
                1.3659240072533046e-16,
                -0.0
            ],
            "min": [
                1.0,
                1.3659240072533046e-16,
                -0.0
            ],
            "name": "mesh292_norm_accessor",
            "type": "VEC3"
        },
        {
            "bufferView": 11,
            "componentType": 5125,
            "count": 6,
            "max": [
                3
            ],
            "min": [
                0
            ],
            "name": "mesh292_idx_accessor",
            "type": "SCALAR"
        },
        {
            "bufferView": 12,
            "componentType": 5126,
            "count": 32,
            "max": [
                -0.07620000094175339,
                -0.049987200647592545,
                0.2421296238899231
            ],
            "min": [
                -0.08254999667406082,
                -0.05633720010519028,
                0.24009762704372406
            ],
            "name": "mesh293_coord_accessor",
            "type": "VEC3"
        },
        {
            "bufferView": 13,
            "componentType": 5126,
            "count": 32,
            "max": [
                1.0,
                1.0,
                2.9688650385051036e-16
            ],
            "min": [
                -1.1287305251160736e-14,
                -1.401298464324817e-45,
                -0.0
            ],
            "name": "mesh293_norm_accessor",
            "type": "VEC3"
        },
        {
            "bufferView": 14,
            "componentType": 5125,
            "count": 90,
            "max": [
                31
            ],
            "min": [
                0
            ],
            "name": "mesh293_idx_accessor",
            "type": "SCALAR"
        },
        {
            "bufferView": 15,
            "componentType": 5126,
            "count": 4,
            "max": [
                0.07620000094175339,
                -0.05633720010519028,
                0.2421296238899231
            ],
            "min": [
                -0.07620000094175339,
                -0.05633720010519028,
                0.24009762704372406
            ],
            "name": "mesh294_coord_accessor",
            "type": "VEC3"
        },
        {
            "bufferView": 16,
            "componentType": 5126,
            "count": 4,
            "max": [
                -1.1287305251160736e-14,
                1.0,
                -0.0
            ],
            "min": [
                -1.1287305251160736e-14,
                1.0,
                -0.0
            ],
            "name": "mesh294_norm_accessor",
            "type": "VEC3"
        },
        {
            "bufferView": 17,
            "componentType": 5125,
            "count": 6,
            "max": [
                3
            ],
            "min": [
                0
            ],
            "name": "mesh294_idx_accessor",
            "type": "SCALAR"
        },
        {
            "bufferView": 18,
            "componentType": 5126,
            "count": 32,
            "max": [
                0.08254999667406082,
                -0.049987200647592545,
                0.2421296238899231
            ],
            "min": [
                0.07620000094175339,
                -0.05633720010519028,
                0.24009762704372406
            ],
            "name": "mesh295_coord_accessor",
            "type": "VEC3"
        },
        {
            "bufferView": 19,
            "componentType": 5126,
            "count": 32,
            "max": [
                -1.1287305251160736e-14,
                1.0,
                -0.0
            ],
            "min": [
                -1.0,
                -1.401298464324817e-45,
                -2.9688650385051036e-16
            ],
            "name": "mesh295_norm_accessor",
            "type": "VEC3"
        },
        {
            "bufferView": 20,
            "componentType": 5125,
            "count": 90,
            "max": [
                31
            ],
            "min": [
                0
            ],
            "name": "mesh295_idx_accessor",
            "type": "SCALAR"
        },
        {
            "bufferView": 21,
            "componentType": 5126,
            "count": 4,
            "max": [
                0.08254999667406082,
                0.0058928001672029495,
                0.2421296238899231
            ],
            "min": [
                0.08254999667406082,
                -0.049987200647592545,
                0.24009762704372406
            ],
            "name": "mesh296_coord_accessor",
            "type": "VEC3"
        },
        {
            "bufferView": 22,
            "componentType": 5126,
            "count": 4,
            "max": [
                -1.0,
                -1.401298464324817e-45,
                -0.0
            ],
            "min": [
                -1.0,
                -1.401298464324817e-45,
                -0.0
            ],
            "name": "mesh296_norm_accessor",
            "type": "VEC3"
        },
        {
            "bufferView": 23,
            "componentType": 5125,
            "count": 6,
            "max": [
                3
            ],
            "min": [
                0
            ],
            "name": "mesh296_idx_accessor",
            "type": "SCALAR"
        },
        {
            "bufferView": 24,
            "componentType": 5126,
            "count": 32,
            "max": [
                0.08254999667406082,
                0.012242799624800682,
                0.2421296238899231
            ],
            "min": [
                0.07620000094175339,
                0.0058928001672029495,
                0.24009762704372406
            ],
            "name": "mesh297_coord_accessor",
            "type": "VEC3"
        },
        {
            "bufferView": 25,
            "componentType": 5126,
            "count": 32,
            "max": [
                -1.1287305251160736e-14,
                0.0,
                -0.0
            ],
            "min": [
                -1.0,
                -1.0,
                -2.9688650385051036e-16
            ],
            "name": "mesh297_norm_accessor",
            "type": "VEC3"
        },
        {
            "bufferView": 26,
            "componentType": 5125,
            "count": 90,
            "max": [
                31
            ],
            "min": [
                0
            ],
            "name": "mesh297_idx_accessor",
            "type": "SCALAR"
        },
        {
            "bufferView": 27,
            "componentType": 5126,
            "count": 4,
            "max": [
                0.07620000094175339,
                0.012242799624800682,
                0.2421296238899231
            ],
            "min": [
                -0.07620000094175339,
                0.012242799624800682,
                0.24009762704372406
            ],
            "name": "mesh298_coord_accessor",
            "type": "VEC3"
        },
        {
            "bufferView": 28,
            "componentType": 5126,
            "count": 4,
            "max": [
                -1.1287305251160736e-14,
                -1.0,
                -0.0
            ],
            "min": [
                -1.1287305251160736e-14,
                -1.0,
                -0.0
            ],
            "name": "mesh298_norm_accessor",
            "type": "VEC3"
        },
        {
            "bufferView": 29,
            "componentType": 5125,
            "count": 6,
            "max": [
                3
            ],
            "min": [
                0
            ],
            "name": "mesh298_idx_accessor",
            "type": "SCALAR"
        },
        {
            "bufferView": 30,
            "componentType": 5126,
            "count": 22,
            "max": [
                -0.09271000325679779,
                0.09372600167989731,
                0.24009762704372406
            ],
            "min": [
                -0.11217738687992096,
                -0.09372600167989731,
                0.2288581281900406
            ],
            "name": "mesh299_coord_accessor",
            "type": "VEC3"
        },
        {
            "bufferView": 31,
            "componentType": 5126,
            "count": 22,
            "max": [
                0.8660253882408142,
                -0.0,
                -0.5
            ],
            "min": [
                -0.0,
                -0.0,
                -1.0
            ],
            "name": "mesh299_norm_accessor",
            "type": "VEC3"
        },
        {
            "bufferView": 32,
            "componentType": 5125,
            "count": 60,
            "max": [
                21
            ],
            "min": [
                0
            ],
            "name": "mesh299_idx_accessor",
            "type": "SCALAR"
        },
        {
            "bufferView": 33,
            "componentType": 5126,
            "count": 4,
            "max": [
                -0.11217738687992096,
                0.09372600167989731,
                0.2288581281900406
            ],
            "min": [
                -0.15846888720989227,
                -0.09372600167989731,
                0.14867889881134033
            ],
            "name": "mesh300_coord_accessor",
            "type": "VEC3"
        },
        {
            "bufferView": 34,
            "componentType": 5126,
            "count": 4,
            "max": [
                0.8660253882408142,
                -0.0,
                -0.5
            ],
            "min": [
                0.8660253882408142,
                -0.0,
                -0.5
            ],
            "name": "mesh300_norm_accessor",
            "type": "VEC3"
        },
        {
            "bufferView": 35,
            "componentType": 5125,
            "count": 6,
            "max": [
                3
            ],
            "min": [
                0
            ],
            "name": "mesh300_idx_accessor",
            "type": "SCALAR"
        },
        {
            "bufferView": 36,
            "componentType": 5126,
            "count": 12,
            "max": [
                -0.15846888720989227,
                0.09372600167989731,
                0.14867889881134033
            ],
            "min": [
                -0.16148050129413605,
                -0.09372600167989731,
                0.13743939995765686
            ],
            "name": "mesh301_coord_accessor",
            "type": "VEC3"
        },
        {
            "bufferView": 37,
            "componentType": 5126,
            "count": 12,
            "max": [
                1.0,
                -0.0,
                -0.0
            ],
            "min": [
                0.8660253882408142,
                -0.0,
                -0.5
            ],
            "name": "mesh301_norm_accessor",
            "type": "VEC3"
        },
        {
            "bufferView": 38,
            "componentType": 5125,
            "count": 30,
            "max": [
                11
            ],
            "min": [
                0
            ],
            "name": "mesh301_idx_accessor",
            "type": "SCALAR"
        },
        {
            "bufferView": 39,
            "componentType": 5126,
            "count": 22,
            "max": [
                0.11217738687992096,
                0.09372600167989731,
                0.24009762704372406
            ],
            "min": [
                0.09271000325679779,
                -0.09372600167989731,
                0.2288581281900406
            ],
            "name": "mesh302_coord_accessor",
            "type": "VEC3"
        },
        {
            "bufferView": 40,
            "componentType": 5126,
            "count": 22,
            "max": [
                -0.0,
                0.0,
                -0.5
            ],
            "min": [
                -0.8660253882408142,
                0.0,
                -1.0
            ],
            "name": "mesh302_norm_accessor",
            "type": "VEC3"
        },
        {
            "bufferView": 41,
            "componentType": 5125,
            "count": 60,
            "max": [
                21
            ],
            "min": [
                0
            ],
            "name": "mesh302_idx_accessor",
            "type": "SCALAR"
        },
        {
            "bufferView": 42,
            "componentType": 5126,
            "count": 4,
            "max": [
                0.15846888720989227,
                0.09372600167989731,
                0.2288581281900406
            ],
            "min": [
                0.11217738687992096,
                -0.09372600167989731,
                0.14867889881134033
            ],
            "name": "mesh303_coord_accessor",
            "type": "VEC3"
        },
        {
            "bufferView": 43,
            "componentType": 5126,
            "count": 4,
            "max": [
                -0.8660253882408142,
                0.0,
                -0.5
            ],
            "min": [
                -0.8660253882408142,
                0.0,
                -0.5
            ],
            "name": "mesh303_norm_accessor",
            "type": "VEC3"
        },
        {
            "bufferView": 44,
            "componentType": 5125,
            "count": 6,
            "max": [
                3
            ],
            "min": [
                0
            ],
            "name": "mesh303_idx_accessor",
            "type": "SCALAR"
        },
        {
            "bufferView": 45,
            "componentType": 5126,
            "count": 12,
            "max": [
                0.16148050129413605,
                0.09372600167989731,
                0.14867889881134033
            ],
            "min": [
                0.15846888720989227,
                -0.09372600167989731,
                0.13743939995765686
            ],
            "name": "mesh304_coord_accessor",
            "type": "VEC3"
        },
        {
            "bufferView": 46,
            "componentType": 5126,
            "count": 12,
            "max": [
                -0.8660253882408142,
                0.0,
                -0.0
            ],
            "min": [
                -1.0,
                0.0,
                -0.5
            ],
            "name": "mesh304_norm_accessor",
            "type": "VEC3"
        },
        {
            "bufferView": 47,
            "componentType": 5125,
            "count": 30,
            "max": [
                11
            ],
            "min": [
                0
            ],
            "name": "mesh304_idx_accessor",
            "type": "SCALAR"
        },
        {
            "bufferView": 48,
            "componentType": 5126,
            "count": 126,
            "max": [
                0.09271000325679779,
                0.09372600167989731,
                0.2421296238899231
            ],
            "min": [
                -0.09271000325679779,
                -0.09372600167989731,
                0.2421296238899231
            ],
            "name": "mesh305_coord_accessor",
            "type": "VEC3"
        },
        {
            "bufferView": 49,
            "componentType": 5126,
            "count": 126,
            "max": [
                1.4969029618185032e-16,
                -0.0,
                1.0
            ],
            "min": [
                1.4969029618185032e-16,
                -0.0,
                1.0
            ],
            "name": "mesh305_norm_accessor",
            "type": "VEC3"
        },
        {
            "bufferView": 50,
            "componentType": 5125,
            "count": 384,
            "max": [
                125
            ],
            "min": [
                0
            ],
            "name": "mesh305_idx_accessor",
            "type": "SCALAR"
        },
        {
            "bufferView": 51,
            "componentType": 5126,
            "count": 22,
            "max": [
                0.113937146961689,
                0.09372600167989731,
                0.2421296238899231
            ],
            "min": [
                0.09271000325679779,
                -0.09372600167989731,
                0.2298741340637207
            ],
            "name": "mesh306_coord_accessor",
            "type": "VEC3"
        },
        {
            "bufferView": 52,
            "componentType": 5126,
            "count": 22,
            "max": [
                0.8660253882408142,
                -0.0,
                1.0
            ],
            "min": [
                1.4969029618185032e-16,
                -0.0,
                0.5
            ],
            "name": "mesh306_norm_accessor",
            "type": "VEC3"
        },
        {
            "bufferView": 53,
            "componentType": 5125,
            "count": 60,
            "max": [
                21
            ],
            "min": [
                0
            ],
            "name": "mesh306_idx_accessor",
            "type": "SCALAR"
        },
        {
            "bufferView": 54,
            "componentType": 5126,
            "count": 4,
            "max": [
                0.1602286547422409,
                0.09372600167989731,
                0.2298741340637207
            ],
            "min": [
                0.113937146961689,
                -0.09372600167989731,
                0.14969490468502045
            ],
            "name": "mesh307_coord_accessor",
            "type": "VEC3"
        },
        {
            "bufferView": 55,
            "componentType": 5126,
            "count": 4,
            "max": [
                0.8660253882408142,
                0.0,
                0.5
            ],
            "min": [
                0.8660253882408142,
                0.0,
                0.5
            ],
            "name": "mesh307_norm_accessor",
            "type": "VEC3"
        },
        {
            "bufferView": 56,
            "componentType": 5125,
            "count": 6,
            "max": [
                3
            ],
            "min": [
                0
            ],
            "name": "mesh307_idx_accessor",
            "type": "SCALAR"
        },
        {
            "bufferView": 57,
            "componentType": 5126,
            "count": 12,
            "max": [
                0.16351249814033508,
                0.09372600167989731,
                0.14969490468502045
            ],
            "min": [
                0.1602286547422409,
                -0.09372600167989731,
                0.13743939995765686
            ],
            "name": "mesh308_coord_accessor",
            "type": "VEC3"
        },
        {
            "bufferView": 58,
            "componentType": 5126,
            "count": 12,
            "max": [
                1.0,
                0.0,
                0.5
            ],
            "min": [
                0.8660253882408142,
                0.0,
                0.0
            ],
            "name": "mesh308_norm_accessor",
            "type": "VEC3"
        },
        {
            "bufferView": 59,
            "componentType": 5125,
            "count": 30,
            "max": [
                11
            ],
            "min": [
                0
            ],
            "name": "mesh308_idx_accessor",
            "type": "SCALAR"
        },
        {
            "bufferView": 60,
            "componentType": 5126,
            "count": 22,
            "max": [
                -0.09271000325679779,
                0.09372600167989731,
                0.2421296238899231
            ],
            "min": [
                -0.113937146961689,
                -0.09372600167989731,
                0.2298741340637207
            ],
            "name": "mesh309_coord_accessor",
            "type": "VEC3"
        },
        {
            "bufferView": 61,
            "componentType": 5126,
            "count": 22,
            "max": [
                0.0,
                0.0,
                1.0
            ],
            "min": [
                -0.8660253882408142,
                0.0,
                0.5
            ],
            "name": "mesh309_norm_accessor",
            "type": "VEC3"
        },
        {
            "bufferView": 62,
            "componentType": 5125,
            "count": 60,
            "max": [
                21
            ],
            "min": [
                0
            ],
            "name": "mesh309_idx_accessor",
            "type": "SCALAR"
        },
        {
            "bufferView": 63,
            "componentType": 5126,
            "count": 4,
            "max": [
                -0.113937146961689,
                0.09372600167989731,
                0.2298741340637207
            ],
            "min": [
                -0.1602286547422409,
                -0.09372600167989731,
                0.14969490468502045
            ],
            "name": "mesh310_coord_accessor",
            "type": "VEC3"
        },
        {
            "bufferView": 64,
            "componentType": 5126,
            "count": 4,
            "max": [
                -0.8660253882408142,
                -0.0,
                0.5
            ],
            "min": [
                -0.8660253882408142,
                -0.0,
                0.5
            ],
            "name": "mesh310_norm_accessor",
            "type": "VEC3"
        },
        {
            "bufferView": 65,
            "componentType": 5125,
            "count": 6,
            "max": [
                3
            ],
            "min": [
                0
            ],
            "name": "mesh310_idx_accessor",
            "type": "SCALAR"
        },
        {
            "bufferView": 66,
            "componentType": 5126,
            "count": 12,
            "max": [
                -0.1602286547422409,
                0.09372600167989731,
                0.14969490468502045
            ],
            "min": [
                -0.16351249814033508,
                -0.09372600167989731,
                0.13743939995765686
            ],
            "name": "mesh311_coord_accessor",
            "type": "VEC3"
        },
        {
            "bufferView": 67,
            "componentType": 5126,
            "count": 12,
            "max": [
                -0.8660253882408142,
                0.0,
                0.5
            ],
            "min": [
                -1.0,
                0.0,
                0.0
            ],
            "name": "mesh311_norm_accessor",
            "type": "VEC3"
        },
        {
            "bufferView": 68,
            "componentType": 5125,
            "count": 30,
            "max": [
                11
            ],
            "min": [
                0
            ],
            "name": "mesh311_idx_accessor",
            "type": "SCALAR"
        },
        {
            "bufferView": 69,
            "componentType": 5126,
            "count": 72,
            "max": [
                0.16351249814033508,
                -0.09372600167989731,
                0.2421296238899231
            ],
            "min": [
                -0.16351249814033508,
                -0.09372600167989731,
                0.0025400000158697367
            ],
            "name": "mesh312_coord_accessor",
            "type": "VEC3"
        },
        {
            "bufferView": 70,
            "componentType": 5126,
            "count": 72,
            "max": [
                0.0,
                -1.0,
                0.0
            ],
            "min": [
                0.0,
                -1.0,
                0.0
            ],
            "name": "mesh312_norm_accessor",
            "type": "VEC3"
        },
        {
            "bufferView": 71,
            "componentType": 5125,
            "count": 210,
            "max": [
                71
            ],
            "min": [
                0
            ],
            "name": "mesh312_idx_accessor",
            "type": "SCALAR"
        },
        {
            "bufferView": 72,
            "componentType": 5126,
            "count": 32,
            "max": [
                -0.16148050129413605,
                -0.09118600189685822,
                0.0025400000158697367
            ],
            "min": [
                -0.16351249814033508,
                -0.09372600167989731,
                2.7538735181131813e-17
            ],
            "name": "mesh313_coord_accessor",
            "type": "VEC3"
        },
        {
            "bufferView": 73,
            "componentType": 5126,
            "count": 32,
            "max": [
                0.0,
                0.0,
                0.0
            ],
            "min": [
                0.0,
                -1.0,
                -1.0
            ],
            "name": "mesh313_norm_accessor",
            "type": "VEC3"
        },
        {
            "bufferView": 74,
            "componentType": 5125,
            "count": 90,
            "max": [
                31
            ],
            "min": [
                0
            ],
            "name": "mesh313_idx_accessor",
            "type": "SCALAR"
        },
        {
            "bufferView": 75,
            "componentType": 5126,
            "count": 34,
            "max": [
                -0.16351249814033508,
                0.09372600167989731,
                0.13743939995765686
            ],
            "min": [
                -0.16351249814033508,
                -0.09372600167989731,
                2.0816681711721685e-17
            ],
            "name": "mesh314_coord_accessor",
            "type": "VEC3"
        },
        {
            "bufferView": 76,
            "componentType": 5126,
            "count": 34,
            "max": [
                -1.0,
                -0.0,
                -0.0
            ],
            "min": [
                -1.0,
                -0.0,
                -0.0
            ],
            "name": "mesh314_norm_accessor",
            "type": "VEC3"
        },
        {
            "bufferView": 77,
            "componentType": 5125,
            "count": 96,
            "max": [
                33
            ],
            "min": [
                0
            ],
            "name": "mesh314_idx_accessor",
            "type": "SCALAR"
        },
        {
            "bufferView": 78,
            "componentType": 5126,
            "count": 34,
            "max": [
                -0.16148050129413605,
                0.09372600167989731,
                0.13743939995765686
            ],
            "min": [
                -0.16148050129413605,
                -0.09372600167989731,
                2.0816681711721685e-17
            ],
            "name": "mesh315_coord_accessor",
            "type": "VEC3"
        },
        {
            "bufferView": 79,
            "componentType": 5126,
            "count": 34,
            "max": [
                1.0,
                0.0,
                0.0
            ],
            "min": [
                1.0,
                0.0,
                0.0
            ],
            "name": "mesh315_norm_accessor",
            "type": "VEC3"
        },
        {
            "bufferView": 80,
            "componentType": 5125,
            "count": 96,
            "max": [
                33
            ],
            "min": [
                0
            ],
            "name": "mesh315_idx_accessor",
            "type": "SCALAR"
        },
        {
            "bufferView": 81,
            "componentType": 5126,
            "count": 4,
            "max": [
                -0.16148050129413605,
                0.09118600189685822,
                2.7538735181131813e-17
            ],
            "min": [
                -0.16351249814033508,
                -0.09118600189685822,
                2.0816681711721685e-17
            ],
            "name": "mesh316_coord_accessor",
            "type": "VEC3"
        },
        {
            "bufferView": 82,
            "componentType": 5126,
            "count": 4,
            "max": [
                0.0,
                0.0,
                -1.0
            ],
            "min": [
                0.0,
                0.0,
                -1.0
            ],
            "name": "mesh316_norm_accessor",
            "type": "VEC3"
        },
        {
            "bufferView": 83,
            "componentType": 5125,
            "count": 6,
            "max": [
                3
            ],
            "min": [
                0
            ],
            "name": "mesh316_idx_accessor",
            "type": "SCALAR"
        },
        {
            "bufferView": 84,
            "componentType": 5126,
            "count": 32,
            "max": [
                -0.16148050129413605,
                0.09372600167989731,
                0.0025400000158697367
            ],
            "min": [
                -0.16351249814033508,
                0.09118600189685822,
                2.0816681711721685e-17
            ],
            "name": "mesh317_coord_accessor",
            "type": "VEC3"
        },
        {
            "bufferView": 85,
            "componentType": 5126,
            "count": 32,
            "max": [
                0.0,
                1.0,
                0.0
            ],
            "min": [
                0.0,
                0.0,
                -1.0
            ],
            "name": "mesh317_norm_accessor",
            "type": "VEC3"
        },
        {
            "bufferView": 86,
            "componentType": 5125,
            "count": 90,
            "max": [
                31
            ],
            "min": [
                0
            ],
            "name": "mesh317_idx_accessor",
            "type": "SCALAR"
        },
        {
            "bufferView": 87,
            "componentType": 5126,
            "count": 72,
            "max": [
                0.16351249814033508,
                0.09372600167989731,
                0.2421296238899231
            ],
            "min": [
                -0.16351249814033508,
                0.09372600167989731,
                0.0025400000158697367
            ],
            "name": "mesh318_coord_accessor",
            "type": "VEC3"
        },
        {
            "bufferView": 88,
            "componentType": 5126,
            "count": 72,
            "max": [
                0.0,
                1.0,
                0.0
            ],
            "min": [
                0.0,
                1.0,
                0.0
            ],
            "name": "mesh318_norm_accessor",
            "type": "VEC3"
        },
        {
            "bufferView": 89,
            "componentType": 5125,
            "count": 210,
            "max": [
                71
            ],
            "min": [
                0
            ],
            "name": "mesh318_idx_accessor",
            "type": "SCALAR"
        },
        {
            "bufferView": 90,
            "componentType": 5126,
            "count": 34,
            "max": [
                0.16351249814033508,
                0.09372600167989731,
                0.13743939995765686
            ],
            "min": [
                0.16351249814033508,
                -0.09372600167989731,
                2.3129645794903686e-17
            ],
            "name": "mesh319_coord_accessor",
            "type": "VEC3"
        },
        {
            "bufferView": 91,
            "componentType": 5126,
            "count": 34,
            "max": [
                1.0,
                -0.0,
                -0.0
            ],
            "min": [
                1.0,
                -0.0,
                -0.0
            ],
            "name": "mesh319_norm_accessor",
            "type": "VEC3"
        },
        {
            "bufferView": 92,
            "componentType": 5125,
            "count": 96,
            "max": [
                33
            ],
            "min": [
                0
            ],
            "name": "mesh319_idx_accessor",
            "type": "SCALAR"
        },
        {
            "bufferView": 93,
            "componentType": 5126,
            "count": 34,
            "max": [
                0.16148050129413605,
                0.09372600167989731,
                0.13743939995765686
            ],
            "min": [
                0.16148050129413605,
                -0.09372600167989731,
                1.8359156235967467e-17
            ],
            "name": "mesh320_coord_accessor",
            "type": "VEC3"
        },
        {
            "bufferView": 94,
            "componentType": 5126,
            "count": 34,
            "max": [
                -1.0,
                0.0,
                0.0
            ],
            "min": [
                -1.0,
                0.0,
                0.0
            ],
            "name": "mesh320_norm_accessor",
            "type": "VEC3"
        },
        {
            "bufferView": 95,
            "componentType": 5125,
            "count": 96,
            "max": [
                33
            ],
            "min": [
                0
            ],
            "name": "mesh320_idx_accessor",
            "type": "SCALAR"
        },
        {
            "bufferView": 96,
            "componentType": 5126,
            "count": 4,
            "max": [
                0.16351249814033508,
                0.09118600189685822,
                2.7466454484845704e-17
            ],
            "min": [
                0.16148050129413605,
                -0.09118600189685822,
                1.8359156235967467e-17
            ],
            "name": "mesh321_coord_accessor",
            "type": "VEC3"
        },
        {
            "bufferView": 97,
            "componentType": 5126,
            "count": 4,
            "max": [
                0.0,
                0.0,
                -1.0
            ],
            "min": [
                0.0,
                0.0,
                -1.0
            ],
            "name": "mesh321_norm_accessor",
            "type": "VEC3"
        },
        {
            "bufferView": 98,
            "componentType": 5125,
            "count": 6,
            "max": [
                3
            ],
            "min": [
                0
            ],
            "name": "mesh321_idx_accessor",
            "type": "SCALAR"
        },
        {
            "bufferView": 99,
            "componentType": 5126,
            "count": 32,
            "max": [
                0.16351249814033508,
                -0.09118600189685822,
                0.0025400000158697367
            ],
            "min": [
                0.16148050129413605,
                -0.09372600167989731,
                2.7466454484845704e-17
            ],
            "name": "mesh322_coord_accessor",
            "type": "VEC3"
        },
        {
            "bufferView": 100,
            "componentType": 5126,
            "count": 32,
            "max": [
                0.0,
                0.0,
                0.0
            ],
            "min": [
                0.0,
                -1.0,
                -1.0
            ],
            "name": "mesh322_norm_accessor",
            "type": "VEC3"
        },
        {
            "bufferView": 101,
            "componentType": 5125,
            "count": 90,
            "max": [
                31
            ],
            "min": [
                0
            ],
            "name": "mesh322_idx_accessor",
            "type": "SCALAR"
        },
        {
            "bufferView": 102,
            "componentType": 5126,
            "count": 32,
            "max": [
                0.16351249814033508,
                0.09372600167989731,
                0.0025400000158697367
            ],
            "min": [
                0.16148050129413605,
                0.09118600189685822,
                1.8359156235967467e-17
            ],
            "name": "mesh323_coord_accessor",
            "type": "VEC3"
        },
        {
            "bufferView": 103,
            "componentType": 5126,
            "count": 32,
            "max": [
                0.0,
                1.0,
                0.0
            ],
            "min": [
                0.0,
                0.0,
                -1.0
            ],
            "name": "mesh323_norm_accessor",
            "type": "VEC3"
        },
        {
            "bufferView": 104,
            "componentType": 5125,
            "count": 90,
            "max": [
                31
            ],
            "min": [
                0
            ],
            "name": "mesh323_idx_accessor",
            "type": "SCALAR"
        }
    ],
    "asset": {
        "generator": "ONSHAPE BY PTC INC, 1.215",
        "version": "2.0"
    },
    "bufferViews": [
        {
            "buffer": 0,
            "byteLength": 1392,
            "name": "mesh289_coord_bufferView",
            "target": 34962
        },
        {
            "buffer": 0,
            "byteLength": 1392,
            "byteOffset": 1392,
            "name": "mesh289_norm_bufferView",
            "target": 34962
        },
        {
            "buffer": 0,
            "byteLength": 1392,
            "byteOffset": 2784,
            "name": "mesh289_idx_bufferView",
            "target": 34963
        },
        {
            "buffer": 0,
            "byteLength": 1512,
            "byteOffset": 4176,
            "name": "mesh290_coord_bufferView",
            "target": 34962
        },
        {
            "buffer": 0,
            "byteLength": 1512,
            "byteOffset": 5688,
            "name": "mesh290_norm_bufferView",
            "target": 34962
        },
        {
            "buffer": 0,
            "byteLength": 1536,
            "byteOffset": 7200,
            "name": "mesh290_idx_bufferView",
            "target": 34963
        },
        {
            "buffer": 0,
            "byteLength": 384,
            "byteOffset": 8736,
            "name": "mesh291_coord_bufferView",
            "target": 34962
        },
        {
            "buffer": 0,
            "byteLength": 384,
            "byteOffset": 9120,
            "name": "mesh291_norm_bufferView",
            "target": 34962
        },
        {
            "buffer": 0,
            "byteLength": 360,
            "byteOffset": 9504,
            "name": "mesh291_idx_bufferView",
            "target": 34963
        },
        {
            "buffer": 0,
            "byteLength": 48,
            "byteOffset": 9864,
            "name": "mesh292_coord_bufferView",
            "target": 34962
        },
        {
            "buffer": 0,
            "byteLength": 48,
            "byteOffset": 9912,
            "name": "mesh292_norm_bufferView",
            "target": 34962
        },
        {
            "buffer": 0,
            "byteLength": 24,
            "byteOffset": 9960,
            "name": "mesh292_idx_bufferView",
            "target": 34963
        },
        {
            "buffer": 0,
            "byteLength": 384,
            "byteOffset": 9984,
            "name": "mesh293_coord_bufferView",
            "target": 34962
        },
        {
            "buffer": 0,
            "byteLength": 384,
            "byteOffset": 10368,
            "name": "mesh293_norm_bufferView",
            "target": 34962
        },
        {
            "buffer": 0,
            "byteLength": 360,
            "byteOffset": 10752,
            "name": "mesh293_idx_bufferView",
            "target": 34963
        },
        {
            "buffer": 0,
            "byteLength": 48,
            "byteOffset": 11112,
            "name": "mesh294_coord_bufferView",
            "target": 34962
        },
        {
            "buffer": 0,
            "byteLength": 48,
            "byteOffset": 11160,
            "name": "mesh294_norm_bufferView",
            "target": 34962
        },
        {
            "buffer": 0,
            "byteLength": 24,
            "byteOffset": 11208,
            "name": "mesh294_idx_bufferView",
            "target": 34963
        },
        {
            "buffer": 0,
            "byteLength": 384,
            "byteOffset": 11232,
            "name": "mesh295_coord_bufferView",
            "target": 34962
        },
        {
            "buffer": 0,
            "byteLength": 384,
            "byteOffset": 11616,
            "name": "mesh295_norm_bufferView",
            "target": 34962
        },
        {
            "buffer": 0,
            "byteLength": 360,
            "byteOffset": 12000,
            "name": "mesh295_idx_bufferView",
            "target": 34963
        },
        {
            "buffer": 0,
            "byteLength": 48,
            "byteOffset": 12360,
            "name": "mesh296_coord_bufferView",
            "target": 34962
        },
        {
            "buffer": 0,
            "byteLength": 48,
            "byteOffset": 12408,
            "name": "mesh296_norm_bufferView",
            "target": 34962
        },
        {
            "buffer": 0,
            "byteLength": 24,
            "byteOffset": 12456,
            "name": "mesh296_idx_bufferView",
            "target": 34963
        },
        {
            "buffer": 0,
            "byteLength": 384,
            "byteOffset": 12480,
            "name": "mesh297_coord_bufferView",
            "target": 34962
        },
        {
            "buffer": 0,
            "byteLength": 384,
            "byteOffset": 12864,
            "name": "mesh297_norm_bufferView",
            "target": 34962
        },
        {
            "buffer": 0,
            "byteLength": 360,
            "byteOffset": 13248,
            "name": "mesh297_idx_bufferView",
            "target": 34963
        },
        {
            "buffer": 0,
            "byteLength": 48,
            "byteOffset": 13608,
            "name": "mesh298_coord_bufferView",
            "target": 34962
        },
        {
            "buffer": 0,
            "byteLength": 48,
            "byteOffset": 13656,
            "name": "mesh298_norm_bufferView",
            "target": 34962
        },
        {
            "buffer": 0,
            "byteLength": 24,
            "byteOffset": 13704,
            "name": "mesh298_idx_bufferView",
            "target": 34963
        },
        {
            "buffer": 0,
            "byteLength": 264,
            "byteOffset": 13728,
            "name": "mesh299_coord_bufferView",
            "target": 34962
        },
        {
            "buffer": 0,
            "byteLength": 264,
            "byteOffset": 13992,
            "name": "mesh299_norm_bufferView",
            "target": 34962
        },
        {
            "buffer": 0,
            "byteLength": 240,
            "byteOffset": 14256,
            "name": "mesh299_idx_bufferView",
            "target": 34963
        },
        {
            "buffer": 0,
            "byteLength": 48,
            "byteOffset": 14496,
            "name": "mesh300_coord_bufferView",
            "target": 34962
        },
        {
            "buffer": 0,
            "byteLength": 48,
            "byteOffset": 14544,
            "name": "mesh300_norm_bufferView",
            "target": 34962
        },
        {
            "buffer": 0,
            "byteLength": 24,
            "byteOffset": 14592,
            "name": "mesh300_idx_bufferView",
            "target": 34963
        },
        {
            "buffer": 0,
            "byteLength": 144,
            "byteOffset": 14616,
            "name": "mesh301_coord_bufferView",
            "target": 34962
        },
        {
            "buffer": 0,
            "byteLength": 144,
            "byteOffset": 14760,
            "name": "mesh301_norm_bufferView",
            "target": 34962
        },
        {
            "buffer": 0,
            "byteLength": 120,
            "byteOffset": 14904,
            "name": "mesh301_idx_bufferView",
            "target": 34963
        },
        {
            "buffer": 0,
            "byteLength": 264,
            "byteOffset": 15024,
            "name": "mesh302_coord_bufferView",
            "target": 34962
        },
        {
            "buffer": 0,
            "byteLength": 264,
            "byteOffset": 15288,
            "name": "mesh302_norm_bufferView",
            "target": 34962
        },
        {
            "buffer": 0,
            "byteLength": 240,
            "byteOffset": 15552,
            "name": "mesh302_idx_bufferView",
            "target": 34963
        },
        {
            "buffer": 0,
            "byteLength": 48,
            "byteOffset": 15792,
            "name": "mesh303_coord_bufferView",
            "target": 34962
        },
        {
            "buffer": 0,
            "byteLength": 48,
            "byteOffset": 15840,
            "name": "mesh303_norm_bufferView",
            "target": 34962
        },
        {
            "buffer": 0,
            "byteLength": 24,
            "byteOffset": 15888,
            "name": "mesh303_idx_bufferView",
            "target": 34963
        },
        {
            "buffer": 0,
            "byteLength": 144,
            "byteOffset": 15912,
            "name": "mesh304_coord_bufferView",
            "target": 34962
        },
        {
            "buffer": 0,
            "byteLength": 144,
            "byteOffset": 16056,
            "name": "mesh304_norm_bufferView",
            "target": 34962
        },
        {
            "buffer": 0,
            "byteLength": 120,
            "byteOffset": 16200,
            "name": "mesh304_idx_bufferView",
            "target": 34963
        },
        {
            "buffer": 0,
            "byteLength": 1512,
            "byteOffset": 16320,
            "name": "mesh305_coord_bufferView",
            "target": 34962
        },
        {
            "buffer": 0,
            "byteLength": 1512,
            "byteOffset": 17832,
            "name": "mesh305_norm_bufferView",
            "target": 34962
        },
        {
            "buffer": 0,
            "byteLength": 1536,
            "byteOffset": 19344,
            "name": "mesh305_idx_bufferView",
            "target": 34963
        },
        {
            "buffer": 0,
            "byteLength": 264,
            "byteOffset": 20880,
            "name": "mesh306_coord_bufferView",
            "target": 34962
        },
        {
            "buffer": 0,
            "byteLength": 264,
            "byteOffset": 21144,
            "name": "mesh306_norm_bufferView",
            "target": 34962
        },
        {
            "buffer": 0,
            "byteLength": 240,
            "byteOffset": 21408,
            "name": "mesh306_idx_bufferView",
            "target": 34963
        },
        {
            "buffer": 0,
            "byteLength": 48,
            "byteOffset": 21648,
            "name": "mesh307_coord_bufferView",
            "target": 34962
        },
        {
            "buffer": 0,
            "byteLength": 48,
            "byteOffset": 21696,
            "name": "mesh307_norm_bufferView",
            "target": 34962
        },
        {
            "buffer": 0,
            "byteLength": 24,
            "byteOffset": 21744,
            "name": "mesh307_idx_bufferView",
            "target": 34963
        },
        {
            "buffer": 0,
            "byteLength": 144,
            "byteOffset": 21768,
            "name": "mesh308_coord_bufferView",
            "target": 34962
        },
        {
            "buffer": 0,
            "byteLength": 144,
            "byteOffset": 21912,
            "name": "mesh308_norm_bufferView",
            "target": 34962
        },
        {
            "buffer": 0,
            "byteLength": 120,
            "byteOffset": 22056,
            "name": "mesh308_idx_bufferView",
            "target": 34963
        },
        {
            "buffer": 0,
            "byteLength": 264,
            "byteOffset": 22176,
            "name": "mesh309_coord_bufferView",
            "target": 34962
        },
        {
            "buffer": 0,
            "byteLength": 264,
            "byteOffset": 22440,
            "name": "mesh309_norm_bufferView",
            "target": 34962
        },
        {
            "buffer": 0,
            "byteLength": 240,
            "byteOffset": 22704,
            "name": "mesh309_idx_bufferView",
            "target": 34963
        },
        {
            "buffer": 0,
            "byteLength": 48,
            "byteOffset": 22944,
            "name": "mesh310_coord_bufferView",
            "target": 34962
        },
        {
            "buffer": 0,
            "byteLength": 48,
            "byteOffset": 22992,
            "name": "mesh310_norm_bufferView",
            "target": 34962
        },
        {
            "buffer": 0,
            "byteLength": 24,
            "byteOffset": 23040,
            "name": "mesh310_idx_bufferView",
            "target": 34963
        },
        {
            "buffer": 0,
            "byteLength": 144,
            "byteOffset": 23064,
            "name": "mesh311_coord_bufferView",
            "target": 34962
        },
        {
            "buffer": 0,
            "byteLength": 144,
            "byteOffset": 23208,
            "name": "mesh311_norm_bufferView",
            "target": 34962
        },
        {
            "buffer": 0,
            "byteLength": 120,
            "byteOffset": 23352,
            "name": "mesh311_idx_bufferView",
            "target": 34963
        },
        {
            "buffer": 0,
            "byteLength": 864,
            "byteOffset": 23472,
            "name": "mesh312_coord_bufferView",
            "target": 34962
        },
        {
            "buffer": 0,
            "byteLength": 864,
            "byteOffset": 24336,
            "name": "mesh312_norm_bufferView",
            "target": 34962
        },
        {
            "buffer": 0,
            "byteLength": 840,
            "byteOffset": 25200,
            "name": "mesh312_idx_bufferView",
            "target": 34963
        },
        {
            "buffer": 0,
            "byteLength": 384,
            "byteOffset": 26040,
            "name": "mesh313_coord_bufferView",
            "target": 34962
        },
        {
            "buffer": 0,
            "byteLength": 384,
            "byteOffset": 26424,
            "name": "mesh313_norm_bufferView",
            "target": 34962
        },
        {
            "buffer": 0,
            "byteLength": 360,
            "byteOffset": 26808,
            "name": "mesh313_idx_bufferView",
            "target": 34963
        },
        {
            "buffer": 0,
            "byteLength": 408,
            "byteOffset": 27168,
            "name": "mesh314_coord_bufferView",
            "target": 34962
        },
        {
            "buffer": 0,
            "byteLength": 408,
            "byteOffset": 27576,
            "name": "mesh314_norm_bufferView",
            "target": 34962
        },
        {
            "buffer": 0,
            "byteLength": 384,
            "byteOffset": 27984,
            "name": "mesh314_idx_bufferView",
            "target": 34963
        },
        {
            "buffer": 0,
            "byteLength": 408,
            "byteOffset": 28368,
            "name": "mesh315_coord_bufferView",
            "target": 34962
        },
        {
            "buffer": 0,
            "byteLength": 408,
            "byteOffset": 28776,
            "name": "mesh315_norm_bufferView",
            "target": 34962
        },
        {
            "buffer": 0,
            "byteLength": 384,
            "byteOffset": 29184,
            "name": "mesh315_idx_bufferView",
            "target": 34963
        },
        {
            "buffer": 0,
            "byteLength": 48,
            "byteOffset": 29568,
            "name": "mesh316_coord_bufferView",
            "target": 34962
        },
        {
            "buffer": 0,
            "byteLength": 48,
            "byteOffset": 29616,
            "name": "mesh316_norm_bufferView",
            "target": 34962
        },
        {
            "buffer": 0,
            "byteLength": 24,
            "byteOffset": 29664,
            "name": "mesh316_idx_bufferView",
            "target": 34963
        },
        {
            "buffer": 0,
            "byteLength": 384,
            "byteOffset": 29688,
            "name": "mesh317_coord_bufferView",
            "target": 34962
        },
        {
            "buffer": 0,
            "byteLength": 384,
            "byteOffset": 30072,
            "name": "mesh317_norm_bufferView",
            "target": 34962
        },
        {
            "buffer": 0,
            "byteLength": 360,
            "byteOffset": 30456,
            "name": "mesh317_idx_bufferView",
            "target": 34963
        },
        {
            "buffer": 0,
            "byteLength": 864,
            "byteOffset": 30816,
            "name": "mesh318_coord_bufferView",
            "target": 34962
        },
        {
            "buffer": 0,
            "byteLength": 864,
            "byteOffset": 31680,
            "name": "mesh318_norm_bufferView",
            "target": 34962
        },
        {
            "buffer": 0,
            "byteLength": 840,
            "byteOffset": 32544,
            "name": "mesh318_idx_bufferView",
            "target": 34963
        },
        {
            "buffer": 0,
            "byteLength": 408,
            "byteOffset": 33384,
            "name": "mesh319_coord_bufferView",
            "target": 34962
        },
        {
            "buffer": 0,
            "byteLength": 408,
            "byteOffset": 33792,
            "name": "mesh319_norm_bufferView",
            "target": 34962
        },
        {
            "buffer": 0,
            "byteLength": 384,
            "byteOffset": 34200,
            "name": "mesh319_idx_bufferView",
            "target": 34963
        },
        {
            "buffer": 0,
            "byteLength": 408,
            "byteOffset": 34584,
            "name": "mesh320_coord_bufferView",
            "target": 34962
        },
        {
            "buffer": 0,
            "byteLength": 408,
            "byteOffset": 34992,
            "name": "mesh320_norm_bufferView",
            "target": 34962
        },
        {
            "buffer": 0,
            "byteLength": 384,
            "byteOffset": 35400,
            "name": "mesh320_idx_bufferView",
            "target": 34963
        },
        {
            "buffer": 0,
            "byteLength": 48,
            "byteOffset": 35784,
            "name": "mesh321_coord_bufferView",
            "target": 34962
        },
        {
            "buffer": 0,
            "byteLength": 48,
            "byteOffset": 35832,
            "name": "mesh321_norm_bufferView",
            "target": 34962
        },
        {
            "buffer": 0,
            "byteLength": 24,
            "byteOffset": 35880,
            "name": "mesh321_idx_bufferView",
            "target": 34963
        },
        {
            "buffer": 0,
            "byteLength": 384,
            "byteOffset": 35904,
            "name": "mesh322_coord_bufferView",
            "target": 34962
        },
        {
            "buffer": 0,
            "byteLength": 384,
            "byteOffset": 36288,
            "name": "mesh322_norm_bufferView",
            "target": 34962
        },
        {
            "buffer": 0,
            "byteLength": 360,
            "byteOffset": 36672,
            "name": "mesh322_idx_bufferView",
            "target": 34963
        },
        {
            "buffer": 0,
            "byteLength": 384,
            "byteOffset": 37032,
            "name": "mesh323_coord_bufferView",
            "target": 34962
        },
        {
            "buffer": 0,
            "byteLength": 384,
            "byteOffset": 37416,
            "name": "mesh323_norm_bufferView",
            "target": 34962
        },
        {
            "buffer": 0,
            "byteLength": 360,
            "byteOffset": 37800,
            "name": "mesh323_idx_bufferView",
            "target": 34963
        }
    ],
    "buffers": [
        {
            "byteLength": 38160,
            "name": "Total_buffer",
            "uri": "data:application/octet-stream;base64,"
        }
    ],
    "extensionsUsed": [
        "PTC_onshape_metadata"
    ],
    "materials": [
        {
            "doubleSided": true,
            "name": "0.980392_0.713725_0.003922_0.000000_0.000000",
            "pbrMetallicRoughness": {
                "baseColorFactor": [
                    0.9803921580314636,
                    0.7137255072593689,
                    0.003921568859368563,
                    1.0
                ],
                "metallicFactor": 0.0
            }
        },
        {
            "doubleSided": true,
            "name": "0.972549_0.529412_0.003922_0.000000_0.000000",
            "pbrMetallicRoughness": {
                "baseColorFactor": [
                    0.9725490212440491,
                    0.529411792755127,
                    0.003921568859368563,
                    1.0
                ],
                "metallicFactor": 0.0
            }
        },
        {
            "doubleSided": true,
            "name": "0.768627_0.886275_0.952941_0.000000_0.000000",
            "pbrMetallicRoughness": {
                "baseColorFactor": [
                    0.7686274647712708,
                    0.886274516582489,
                    0.9529411792755127,
                    1.0
                ],
                "metallicFactor": 0.0
            }
        },
        {
            "doubleSided": true,
            "name": "0.647059_0.647059_0.647059_0.000000_0.000000",
            "pbrMetallicRoughness": {
                "baseColorFactor": [
                    0.6470588445663452,
                    0.6470588445663452,
                    0.6470588445663452,
                    1.0
                ],
                "metallicFactor": 0.0
            }
        },
        {
            "doubleSided": true,
            "name": "0.231373_0.380392_0.705882_0.000000_0.000000",
            "pbrMetallicRoughness": {
                "baseColorFactor": [
                    0.23137255012989044,
                    0.3803921639919281,
                    0.7058823704719543,
                    1.0
                ],
                "metallicFactor": 0.0
            }
        },
        {
            "doubleSided": true,
            "name": "0.615686_0.811765_0.929412_0.000000_0.000000",
            "pbrMetallicRoughness": {
                "baseColorFactor": [
                    0.615686297416687,
                    0.8117647171020508,
                    0.929411768913269,
                    1.0
                ],
                "metallicFactor": 0.0
            }
        },
        {
            "doubleSided": true,
            "name": "0.917647_0.917647_0.917647_0.000000_0.000000",
            "pbrMetallicRoughness": {
                "baseColorFactor": [
                    0.9176470637321472,
                    0.9176470637321472,
                    0.9176470637321472,
                    1.0
                ],
                "metallicFactor": 0.0
            }
        },
        {
            "doubleSided": true,
            "name": "0.498039_0.498039_0.498039_0.000000_0.000000",
            "pbrMetallicRoughness": {
                "baseColorFactor": [
                    0.49803921580314636,
                    0.49803921580314636,
                    0.49803921580314636,
                    1.0
                ],
                "metallicFactor": 0.0
            }
        }
    ],
    "meshes": [
        {
            "name": "mesh289_mesh",
            "primitives": [
                {
                    "attributes": {
                        "NORMAL": 1,
                        "POSITION": 0
                    },
                    "indices": 2,
                    "material": 4
                }
            ]
        },
        {
            "name": "mesh290_mesh",
            "primitives": [
                {
                    "attributes": {
                        "NORMAL": 4,
                        "POSITION": 3
                    },
                    "indices": 5,
                    "material": 4
                }
            ]
        },
        {
            "name": "mesh291_mesh",
            "primitives": [
                {
                    "attributes": {
                        "NORMAL": 7,
                        "POSITION": 6
                    },
                    "indices": 8,
                    "material": 4
                }
            ]
        },
        {
            "name": "mesh292_mesh",
            "primitives": [
                {
                    "attributes": {
                        "NORMAL": 10,
                        "POSITION": 9
                    },
                    "indices": 11,
                    "material": 4
                }
            ]
        },
        {
            "name": "mesh293_mesh",
            "primitives": [
                {
                    "attributes": {
                        "NORMAL": 13,
                        "POSITION": 12
                    },
                    "indices": 14,
                    "material": 4
                }
            ]
        },
        {
            "name": "mesh294_mesh",
            "primitives": [
                {
                    "attributes": {
                        "NORMAL": 16,
                        "POSITION": 15
                    },
                    "indices": 17,
                    "material": 4
                }
            ]
        },
        {
            "name": "mesh295_mesh",
            "primitives": [
                {
                    "attributes": {
                        "NORMAL": 19,
                        "POSITION": 18
                    },
                    "indices": 20,
                    "material": 4
                }
            ]
        },
        {
            "name": "mesh296_mesh",
            "primitives": [
                {
                    "attributes": {
                        "NORMAL": 22,
                        "POSITION": 21
                    },
                    "indices": 23,
                    "material": 4
                }
            ]
        },
        {
            "name": "mesh297_mesh",
            "primitives": [
                {
                    "attributes": {
                        "NORMAL": 25,
                        "POSITION": 24
                    },
                    "indices": 26,
                    "material": 4
                }
            ]
        },
        {
            "name": "mesh298_mesh",
            "primitives": [
                {
                    "attributes": {
                        "NORMAL": 28,
                        "POSITION": 27
                    },
                    "indices": 29,
                    "material": 4
                }
            ]
        },
        {
            "name": "mesh299_mesh",
            "primitives": [
                {
                    "attributes": {
                        "NORMAL": 31,
                        "POSITION": 30
                    },
                    "indices": 32,
                    "material": 4
                }
            ]
        },
        {
            "name": "mesh300_mesh",
            "primitives": [
                {
                    "attributes": {
                        "NORMAL": 34,
                        "POSITION": 33
                    },
                    "indices": 35,
                    "material": 4
                }
            ]
        },
        {
            "name": "mesh301_mesh",
            "primitives": [
                {
                    "attributes": {
                        "NORMAL": 37,
                        "POSITION": 36
                    },
                    "indices": 38,
                    "material": 4
                }
            ]
        },
        {
            "name": "mesh302_mesh",
            "primitives": [
                {
                    "attributes": {
                        "NORMAL": 40,
                        "POSITION": 39
                    },
                    "indices": 41,
                    "material": 4
                }
            ]
        },
        {
            "name": "mesh303_mesh",
            "primitives": [
                {
                    "attributes": {
                        "NORMAL": 43,
                        "POSITION": 42
                    },
                    "indices": 44,
                    "material": 4
                }
            ]
        },
        {
            "name": "mesh304_mesh",
            "primitives": [
                {
                    "attributes": {
                        "NORMAL": 46,
                        "POSITION": 45
                    },
                    "indices": 47,
                    "material": 4
                }
            ]
        },
        {
            "name": "mesh305_mesh",
            "primitives": [
                {
                    "attributes": {
                        "NORMAL": 49,
                        "POSITION": 48
                    },
                    "indices": 50,
                    "material": 4
                }
            ]
        },
        {
            "name": "mesh306_mesh",
            "primitives": [
                {
                    "attributes": {
                        "NORMAL": 52,
                        "POSITION": 51
                    },
                    "indices": 53,
                    "material": 4
                }
            ]
        },
        {
            "name": "mesh307_mesh",
            "primitives": [
                {
                    "attributes": {
                        "NORMAL": 55,
                        "POSITION": 54
                    },
                    "indices": 56,
                    "material": 4
                }
            ]
        },
        {
            "name": "mesh308_mesh",
            "primitives": [
                {
                    "attributes": {
                        "NORMAL": 58,
                        "POSITION": 57
                    },
                    "indices": 59,
                    "material": 4
                }
            ]
        },
        {
            "name": "mesh309_mesh",
            "primitives": [
                {
                    "attributes": {
                        "NORMAL": 61,
                        "POSITION": 60
                    },
                    "indices": 62,
                    "material": 4
                }
            ]
        },
        {
            "name": "mesh310_mesh",
            "primitives": [
                {
                    "attributes": {
                        "NORMAL": 64,
                        "POSITION": 63
                    },
                    "indices": 65,
                    "material": 4
                }
            ]
        },
        {
            "name": "mesh311_mesh",
            "primitives": [
                {
                    "attributes": {
                        "NORMAL": 67,
                        "POSITION": 66
                    },
                    "indices": 68,
                    "material": 4
                }
            ]
        },
        {
            "name": "mesh312_mesh",
            "primitives": [
                {
                    "attributes": {
                        "NORMAL": 70,
                        "POSITION": 69
                    },
                    "indices": 71,
                    "material": 4
                }
            ]
        },
        {
            "name": "mesh313_mesh",
            "primitives": [
                {
                    "attributes": {
                        "NORMAL": 73,
                        "POSITION": 72
                    },
                    "indices": 74,
                    "material": 4
                }
            ]
        },
        {
            "name": "mesh314_mesh",
            "primitives": [
                {
                    "attributes": {
                        "NORMAL": 76,
                        "POSITION": 75
                    },
                    "indices": 77,
                    "material": 4
                }
            ]
        },
        {
            "name": "mesh315_mesh",
            "primitives": [
                {
                    "attributes": {
                        "NORMAL": 79,
                        "POSITION": 78
                    },
                    "indices": 80,
                    "material": 4
                }
            ]
        },
        {
            "name": "mesh316_mesh",
            "primitives": [
                {
                    "attributes": {
                        "NORMAL": 82,
                        "POSITION": 81
                    },
                    "indices": 83,
                    "material": 4
                }
            ]
        },
        {
            "name": "mesh317_mesh",
            "primitives": [
                {
                    "attributes": {
                        "NORMAL": 85,
                        "POSITION": 84
                    },
                    "indices": 86,
                    "material": 4
                }
            ]
        },
        {
            "name": "mesh318_mesh",
            "primitives": [
                {
                    "attributes": {
                        "NORMAL": 88,
                        "POSITION": 87
                    },
                    "indices": 89,
                    "material": 4
                }
            ]
        },
        {
            "name": "mesh319_mesh",
            "primitives": [
                {
                    "attributes": {
                        "NORMAL": 91,
                        "POSITION": 90
                    },
                    "indices": 92,
                    "material": 4
                }
            ]
        },
        {
            "name": "mesh320_mesh",
            "primitives": [
                {
                    "attributes": {
                        "NORMAL": 94,
                        "POSITION": 93
                    },
                    "indices": 95,
                    "material": 4
                }
            ]
        },
        {
            "name": "mesh321_mesh",
            "primitives": [
                {
                    "attributes": {
                        "NORMAL": 97,
                        "POSITION": 96
                    },
                    "indices": 98,
                    "material": 4
                }
            ]
        },
        {
            "name": "mesh322_mesh",
            "primitives": [
                {
                    "attributes": {
                        "NORMAL": 100,
                        "POSITION": 99
                    },
                    "indices": 101,
                    "material": 4
                }
            ]
        },
        {
            "name": "mesh323_mesh",
            "primitives": [
                {
                    "attributes": {
                        "NORMAL": 103,
                        "POSITION": 102
                    },
                    "indices": 104,
                    "material": 4
                }
            ]
        }
    ],
    "nodes": [
        {
            "mesh": 0,
            "name": "mesh289"
        },
        {
            "mesh": 1,
            "name": "mesh290"
        },
        {
            "mesh": 2,
            "name": "mesh291"
        },
        {
            "mesh": 3,
            "name": "mesh292"
        },
        {
            "mesh": 4,
            "name": "mesh293"
        },
        {
            "mesh": 5,
            "name": "mesh294"
        },
        {
            "mesh": 6,
            "name": "mesh295"
        },
        {
            "mesh": 7,
            "name": "mesh296"
        },
        {
            "mesh": 8,
            "name": "mesh297"
        },
        {
            "mesh": 9,
            "name": "mesh298"
        },
        {
            "mesh": 10,
            "name": "mesh299"
        },
        {
            "mesh": 11,
            "name": "mesh300"
        },
        {
            "mesh": 12,
            "name": "mesh301"
        },
        {
            "mesh": 13,
            "name": "mesh302"
        },
        {
            "mesh": 14,
            "name": "mesh303"
        },
        {
            "mesh": 15,
            "name": "mesh304"
        },
        {
            "mesh": 16,
            "name": "mesh305"
        },
        {
            "mesh": 17,
            "name": "mesh306"
        },
        {
            "mesh": 18,
            "name": "mesh307"
        },
        {
            "mesh": 19,
            "name": "mesh308"
        },
        {
            "mesh": 20,
            "name": "mesh309"
        },
        {
            "mesh": 21,
            "name": "mesh310"
        },
        {
            "mesh": 22,
            "name": "mesh311"
        },
        {
            "mesh": 23,
            "name": "mesh312"
        },
        {
            "mesh": 24,
            "name": "mesh313"
        },
        {
            "mesh": 25,
            "name": "mesh314"
        },
        {
            "mesh": 26,
            "name": "mesh315"
        },
        {
            "mesh": 27,
            "name": "mesh316"
        },
        {
            "mesh": 28,
            "name": "mesh317"
        },
        {
            "mesh": 29,
            "name": "mesh318"
        },
        {
            "mesh": 30,
            "name": "mesh319"
        },
        {
            "mesh": 31,
            "name": "mesh320"
        },
        {
            "mesh": 32,
            "name": "mesh321"
        },
        {
            "mesh": 33,
            "name": "mesh322"
        },
        {
            "mesh": 34,
            "name": "mesh323"
        }
    ],
    "scene": 0,
    "scenes": [
        {
            "name": "Root",
            "nodes": [
                0,
                1,
                2,
                3,
                4,
                5,
                6,
                7,
                8,
                9,
                10,
                11,
                12,
                13,
                14,
                15,
                16,
                17,
                18,
                19,
                20,
                21,
                22,
                23,
                24,
                25,
                26,
                27,
                28,
                29,
                30,
                31,
                32,
                33,
                34
            ]
        }
    ]
}